/* XPM */
static char *result[] = {
/* columns rows colors chars-per-pixel */
"64 64 219 2 ",
"   c #0E0C0B",
".  c #120E0B",
"X  c #1A130D",
"o  c #16110D",
"O  c #1C1611",
"+  c #171412",
"@  c #231C14",
"#  c #261F14",
"$  c #2C2113",
"%  c #2B261A",
"&  c #362917",
"*  c #3F311A",
"=  c #282825",
"-  c #39382A",
";  c #393A31",
":  c #48371D",
">  c #463D24",
",  c #563828",
"<  c #5C3532",
"1  c #7A2B24",
"2  c #77352E",
"3  c #703934",
"4  c #5B4724",
"5  c #4E472E",
"6  c #6C562E",
"7  c #6C5227",
"8  c #745B2E",
"9  c #7A5E2D",
"0  c #76552A",
"q  c #745B30",
"w  c #734D38",
"e  c #7E612C",
"r  c #776639",
"t  c #6C693D",
"y  c #5B5B56",
"u  c #5D574C",
"i  c #7A4D48",
"p  c #6A5E49",
"a  c #635E53",
"s  c #655E59",
"d  c #685E50",
"f  c #6E4F4D",
"g  c #6C614D",
"h  c #786648",
"j  c #7D7B46",
"k  c #65615B",
"l  c #6A6559",
"z  c #6D6859",
"x  c #72665B",
"c  c #7A795A",
"v  c #6B6661",
"b  c #686664",
"n  c #736C65",
"m  c #736A66",
"M  c #7C736B",
"N  c #75716B",
"B  c #7E7A75",
"V  c #777675",
"C  c #6F726B",
"Z  c #98271C",
"A  c #853B33",
"S  c #952D24",
"D  c #AD392E",
"F  c #A6453C",
"G  c #83642C",
"H  c #8C6B2E",
"J  c #88672D",
"K  c #906D2F",
"L  c #8C6B33",
"P  c #896C36",
"I  c #926E31",
"U  c #957232",
"Y  c #9B7533",
"T  c #9F7934",
"R  c #99773C",
"E  c #A47C35",
"W  c #A27D39",
"Q  c #A87F37",
"!  c #8D534D",
"~  c #8E4F4A",
"^  c #877349",
"/  c #977C46",
"(  c #83625C",
")  c #847555",
"_  c #85795C",
"`  c #8B6B51",
"'  c #837B76",
"]  c #AC8339",
"[  c #A98139",
"{  c #B1863B",
"}  c #B5893C",
"|  c #BB8D3E",
" . c #BF903F",
".. c #C1913F",
"X. c #858349",
"o. c #9C8A57",
"O. c #918E51",
"+. c #AC8949",
"@. c #B38D49",
"#. c #B58D44",
"$. c #BE9242",
"%. c #BD954C",
"&. c #B5924C",
"*. c #A98E56",
"=. c #A89359",
"-. c #B29557",
";. c #ADAB5A",
":. c #BBA35C",
">. c #898679",
",. c #978C79",
"<. c #A79663",
"1. c #A8967A",
"2. c #AFA96A",
"3. c #B7B775",
"4. c #C49441",
"5. c #C89742",
"6. c #CB9A43",
"7. c #C79A49",
"8. c #D19E45",
"9. c #CDA24C",
"0. c #CDAA4F",
"q. c #D5A146",
"w. c #D5A349",
"e. c #DAA649",
"r. c #DEA94B",
"t. c #D7A64A",
"y. c #CBA453",
"u. c #C9A75B",
"i. c #D4A654",
"p. c #DAAA53",
"a. c #D4AD5A",
"s. c #DFB257",
"d. c #DAB95B",
"f. c #CEB257",
"g. c #E4AC4C",
"h. c #E8AF4D",
"j. c #ECB24E",
"k. c #F1B64F",
"l. c #E4B254",
"z. c #EDB551",
"x. c #ECBB55",
"c. c #E4B55B",
"v. c #E7BB5B",
"b. c #F1B750",
"n. c #F1B954",
"m. c #F2BE5B",
"M. c #E2AF51",
"N. c #D5AE63",
"B. c #CEB464",
"V. c #DAB163",
"C. c #D6B767",
"Z. c #D1B670",
"A. c #E1BA65",
"S. c #ECBE61",
"D. c #E2B764",
"F. c #DFC25D",
"G. c #ECC25B",
"H. c #E3C15C",
"J. c #F2C35B",
"K. c #F3C056",
"L. c #D7C768",
"P. c #C8C677",
"I. c #DBCC73",
"U. c #D7D67C",
"Y. c #D4CE6B",
"T. c #E3C463",
"R. c #EBC265",
"E. c #EAC36A",
"W. c #E7C96A",
"Q. c #F4C563",
"!. c #F4CB65",
"~. c #F5CB6A",
"^. c #F8CE6A",
"/. c #EFD264",
"(. c #ECD46A",
"). c #EDDB6C",
"_. c #E4D66B",
"`. c #F4D566",
"'. c #F6D16E",
"]. c #F6DA69",
"[. c #E9C971",
"{. c #E9DA78",
"}. c #F7D875",
"|. c #FAE16B",
" X c #EBE879",
".X c #F4E975",
"XX c #FAEC73",
"oX c #F6E777",
"OX c #FBF47B",
"+X c #F9F47B",
"@X c #757C94",
"#X c #7D839C",
"$X c #8A8884",
"%X c #938984",
"&X c #8D8E95",
"*X c #A9A994",
"=X c #ACA8A3",
"-X c #8A93AF",
";X c #DFDC88",
":X c #C6C483",
">X c #E5D583",
",X c #E5D997",
"<X c #F6EE87",
"1X c #FFFF83",
"2X c #FEFF8C",
"3X c #F9F385",
"4X c #F7EB9B",
"5X c #FFFF92",
"6X c #FBFB98",
"7X c #EDE691",
"8X c #FEFDAC",
"9X c #FBFAA1",
"0X c #FEFEBD",
"qX c #FAEFB3",
"wX c #FFFDCD",
"eX c #FBF7C3",
"rX c #FEFED5",
"tX c #FFFFDB",
"yX c None",
/* pixels */
"yXyXyXyXyXyXyXyXyXyXyXyXyXyXyXyXyXyXyXyXyXyXyXyXyXyXyXyXyXyXyXyXyXyXyXyXyXyXyXyXyXyXyXyXyXyXyXyXyXyXyXyXyXyXyXyXyXyXyXyXyXyXyXyX",
"yXyXyXyXyXyXyXyXyXyXyXyXyXyXyXyXyXyXyXyXyXyXyXyXyXyXyXyXyXyXyXyXyXyXyXyXyXyXyXyXyXyXyXyXyXyXyXyXyXyXyXyXyXyXyXyXyXyXyXyXyXyXyXyX",
"yXyXyXyXyXyXyXyXyXyXyXyXyXyXyXyXyXyXyXyXyXyXyXyXyXyXyXyXyXyXyXyXyXyXyXyXyXyXyXyXyXyXyXyXyXyXyXyXyXyXyXyXyXyXyXyXyXyXyXyXyXyXyXyX",
"yXyXyXyXyXyXyXyXyXyXyXyXyXyXyXyXyXyXyXyXyXyXyXyXyXyXyXyXyXyXyXyXyXyXyXyXyXyXyXyXyXyXyXyXyXyXyXyXyXyXyXyXyXyXyXyXyXyXyXyXyXyXyXyX",
"yXyXyXyXyXyXyXyXyXyXyXyXyXyXyXyXyXyXyXyXyXyXyXyXyXyXyXyXyXyXyXyXyXyXyXyXyXyXyXyXyXyXyXyXyXyXyXyXyXyXyXyXyXyXyXyXyXyXyXyXyXyXyXyX",
"yXyXyXyXyXyXyXyXyXyXyXyXyXyXyXyXyXyXyXyXyXyXyXyXyXyXyXyXyXyXyXyXyXyXyXyXyXyXyXyXyXyXyXyXyXyXyXyXyXyXyXyXyXyXyXyXyXyXyXyXyXyXyXyX",
"yXyXyXyXyXyXyXyXyXyXyXyXyXyXyXyXyXyXyXyXyXyXyXyXyXyXyXyXyXyXyXyXyXyXyXyXyXyXyXyXyXyXyXyXyXyXyXyXyXyXyXyXyXyXyXyXyXyXyXyXyXyXyXyX",
"yXyXyXyXyXyXyXyXyXyXyXyXyXyXyXyXyXyXyXyX+.R P *.I.yXyXyXyXyXyXyXyXyXyXyXyXyXyXyXyXyXyXyXyXyXyXyXyXyXyXyXyXyXyXyXyXyXyXyXyXyXyXyX",
"yXyXyXyXyXyXyXyXyXyXyXyXyXyXyXyXyXyXy.+.R ^ ^ 2.4X4X;XI.I.yXyXyXyXyXyXyXyXyXyXyXyXyXyXyXyXyXyXyXyXyXyXyXyXyXyXyXyXyXyXyXyXyXyXyX",
"yXyXyXyXyXyXyXyXyXyXyXyXyXyXyXyXyX9.$.{ &.,X>X>XrXrXwX0X9X4XyXyXyXyXyXyXyXyXyXyXyXyXyXyXyXyXyXyXyXyXyXyXyXyXyXyXyXyXyXyXyXyXyXyX",
"yXyXyXyXyXyXyXyXyXyXyXyXyXyXyXC.s.9.5.| a.4XW.,XrXtXtXtXtXeXZ.yXyXyXyXyXyXyXyXyXyXyXyXyXyXyXyXyXyXyXyXyXyXyXyXyXyXyXyXyXyXyXyXyX",
"yXyXyXyXyXyXyXyXyXyXyXyXyXyXC.x.l.r.q.6.d.3X).6X8XeXwXtXtXwXA.yXyXyXyXyXyXyXyXyXyXyXyXyXyXyXyXyXyXyXyXyXyXyXyXyXyXyXyXyXyXyXyXyX",
"yXyXyXyXyXyXyXyXyXyXyXyXyXT.x.z.z.M.*.,.P.).<X5X6X9X8X0XrXqXJ.i.yXyXyXyXyXyXyXyXyXyXyXyXyXyXyXyXyXyXyXyXyXyXyXyXyXyXyXyXyXyXyXyX",
"yXyXyXyXyXyXyXyXyXyXyXyXC.n.z.z.u.1.&X@Xz U.2X5X5X5X5X9X8X>Xm.v.y.yXyXyXyXyXyXyXyXyXyXyXyXyXyXyXyXyXyXyXyXyXyXyXyXyXyXyXyXyXyXyX",
"yXyXyXyXyXyXyXyXyXyXyXyXc.j.z.h.1.-X#X@X3.2X5X2X5X2X5X5X<XJ.m.m.s.yXyXyXyXyXyXyXyXyXyXyXyXyXyXyXyXyXyXyXyXyXyXyXyXyXyXyXyXyXyXyX",
"yXyXyXyXyXyXyXyXyXyXyXE.z.z.z.G.,.#XC 3.3X2X2X2X2X5X5X5X!.n.x.m.m.y.yXyXyXyXyXyXyXyXyXyXyXyXyXyXyXyXyXyXyXyXyXyXyXyXyXyXyXyXyXyX",
"yXyXyXyXyXyXyXyXyXyXyXR.n.z.J..Xc n U.1X1X2X2X2X5X2X2XoXz.b.n.m.J.c.yXyXyXyXyXyXyXyXyXyXyXyXyXyXyXyXyXyXyXyXyXyXyXyXyXyXyXyXyXyX",
"yXyXyXyXyXyXyXyXyXyXC.c.m.m.oX.XP. X1XOX1X2X1X2X2X2XoXm.z.z.n.n.m.m.*.yXyXyXyXyXyXyXyXyXyXyXyXyXyXyXyXyXyXyXyXyXyXyXyXyXyXyXyXyX",
"yXyXyXyXyXyXyXyXyXyX:.y.c.W.{.{.+X1X1X1X1X1X1X2X1X+XG.b.k.j.z.n.n.x.h o.yXyXyXyXyXyXyXyXyXyXyXyXyXyXyXyXyXyXyXyXyXyXyXyXyXyXyXyX",
"yXyXyXyXyXyXyXyXyXyX@.9.c.!.`.|.XXOX2X1XOX1X1X2X+XG.k.j.z.k.z.z.n.p.5 O.>XyXyXyXyXyXyXyXyXyXyXyXyXyXyXyXyXyXyXyXyXyXyXyXyXyXyXyX",
"yXyXyXyXyXyXyXyXyXyXR $.l.R.H.(.XXOX2X1X1X1X1X+XH.j.j.j.k.b.z.z.n.@.- c 7XyXyXyXyXyXyXyXyXyXyXyXyXyXyXyXyXyXyXyXyXyXyXyXyXyXyXyX",
"yXyXyXyXyXyXyXyXyXyX%.7.d.{.).T.).OX1X1X1X1X.Xv.h.h.j.j.k.b.b.z.M.6 = ,.4Xa.yXyXyXyXyXyXyXyXyXyXyXyXyXyXyXyXyXyXyXyXyXyXyXyXyXyX",
"yXyXyXyXyXyXyXyXyXyXW..Xv.s.G.d.L.XXOX1X1X).g.g.h.h.h.j.j.k.z.b.] % = *X4XS.u.yXyXyXyXyXyXyXyXyXyXyXyXyXyXyXyXyXyXyXyXyXyXyXyXyX",
"yXyXyXyXyXyXyXyXyXyX XXX].`.`.].(.XXOX.Xd.w.t.r.g.h.g.j.j.z.z.q.5 + - ;X}.J.D.yXyXyXyXyXyXyXyXyXyXyXyXyXyXyXyXyXyXyXyXyXyXyXyXyX",
"yXyXyXyXyXyXyXyXyXyX_.].|.|.|.].'.).F.9.5.6.w.r.r.h.h.j.j.j.g.e # . X.XXf.H.Q.a.yXyXyXyXyXyXyXyXyXyXyXyXyXyXyXyXyXyXyXyXyXyXyXyX",
"yXyXyXyXyXyXyXyXyXyXyXd./.)./.F.0.$.$.4.6.6.q.w.r.p.g.h.h.g.H $ X 5 _.F.z =.!.S.yXyXyXyXyXyXyXyXyXyXyXyXyXyXyXyXyXyXyXyXyXyXyXyX",
"yXyXyXyXyXyXyXyXyXyXyXyXU [ T T E ] } $.4.6.5.w.w.r.r.h.r.I $ O $ ;.XXo.y l u.!.D.yXyXyXyXyXyXyXyXyXyXyXyXyXyXyXyXyXyXyXyXyXyXyX",
"yXyXyXyXyXyXyXyXyXyXyXyXyXe J U T [ ] } $.7.5.6.w.t.r.w.H $ X O X.+Xf.t y b ) S.Q.V.yXyXyXyXyXyXyXyXyXyXyXyXyXyXyXyXyXyXyXyXyXyX",
"yXyXyXyXyXyXyXyXyXyXyXyXyXq e H U T [ ] | 4.5.5.6.w.4.8 $ . X r  X_.^ g k b k *.~.R.yXyXyXyXyXyXyXyXyXyXyXyXyXyXyXyXyXyXyXyXyXyX",
"yXyXyXyXyXyXyXyXyXyXyXyXyXyX8 G H U E ] } | 4.5.4.T : O + O t  X(./ a k N B m l u.~.D.yXyXyXyXyXyXyXyXyXyXyXyXyXyXyXyXyXyXyXyXyX",
"yXyXyXyXyXyXyXyXyXyXyXyXyXyXyX8 G L Y E [ } } W 7 $ .   @ X.3X|.%.a k x M k B $X) R.~.V.yXyXyXyXyXyXyXyXyXyXyXyXyXyXyXyXyXyXyXyX",
"yXyXyXyXyXyXyXyXyXyXyXyXyXyXyXyX8 e H U U G 4 & O .   - 2.3X_.l.7.g b s z 5 y $Xb *.~.E.yXyXyXyXyXyXyXyXyXyXyXyXyXyXyXyXyXyXyXyX",
"yXyXyXyXyXyXyXyXyXyXyXyXyXyXyXyXyXyX& & $ X . . . % ^ U.<XH.e.g.h.+.a m h G 2 s b z N.^.A.yXyXyXyXyXyXyXyXyXyXyXyXyXyXyXyXyXyXyX",
"yXyXyXyXyXyXyXyXyXyXyXyXyXyXyXyXyXyX5 $ o O $ > ^ Y.+X_.t.8.e.g.h.g.^ s M ` ~ 3 M b ) E.~.N.yXyXyXyXyXyXyXyXyXyXyXyXyXyXyXyXyXyX",
"yXyXyXyXyXyXyXyXyXyXyXyXyXyXyXyXyXyXyXR +.%.y.T.(.F.9.5.5.6.q.e.r.h.t.h V %XA D ! ' V *.'.E.yXyXyXyXyXyXyXyXyXyXyXyXyXyXyXyXyXyX",
"yXyXyXyXyXyXyXyXyXyXyXyXyXyXyXyXyXyXyXP [ %.$.$.} { #.4.5.6.8.q.r.g.h.7.f m 3 Z A ' $Xl B.^.D.yXyXyXyXyXyXyXyXyXyXyXyXyXyXyXyXyX",
"yXyXyXyXyXyXyXyXyXyXyXyXyXyXyXyXyXyXyXyX8 e H Y T [ {  ...5.6.8.8.g.g.h.+.s m < 1 ~ m v ) E.~.C.yXyXyXyXyXyXyXyXyXyXyXyXyXyXyXyX",
"yXyXyXyXyXyXyXyXyXyXyXyXyXyXyXyXyXyXyXyXyX8 G I Y [ ] { ....5.6.8.8.g.g.M.^ s x ! D ~ N k <.'.A.yXyXyXyXyXyXyXyXyXyXyXyXyXyXyXyX",
"yXyXyXyXyXyXyXyXyXyXyXyXyXyXyXyXyXyXyXyXyXyXe G I Y [ ] | | 5...8.8.g.g.M.w.g ' %X2 A ( &Xm B.^.V.yXyXyXyXyXyXyXyXyXyXyXyXyXyXyX",
"yXyXyXyXyXyXyXyXyXyXyXyXyXyXyXyXyXyXyXyXyXyXyXe J U Y E { } ....5.8.8.8.g.h.4.d m < Z F $Xb _ W.E.yXyXyXyXyXyXyXyXyXyXyXyXyXyXyX",
"yXyXyXyXyXyXyXyXyXyXyXyXyXyXyXyXyXyXyXyXyXyXyXyXe J U T Q ] | ..4.5.8.8.h.h.h.W s x 1 S f v s <.}.B.yXyXyXyXyXyXyXyXyXyXyXyXyXyX",
"yXyXyXyXyXyXyXyXyXyXyXyXyXyXyXyXyXyXyXyXyXyXyXyXyXe H U E [ { | 4.4.6.8...g.h.g.` s ' x D ( ' m B.:.P.yXyXyXyXyXyXyXyXyXyXyXyXyX",
"yXyXyXyXyXyXyXyXyXyXyXyXyXyXyXyXyXyXyXyXyXyXyXyXyXyXe H U E Q { } 4.4.6.e.g.g.h.8.g ' ( Z ! =Xb <.o.P.yXyXyXyXyXyXyXyXyXyXyXyXyX",
"yXyXyXyXyXyXyXyXyXyXyXyXyXyXyXyXyXyXyXyXyXyXyXyXyXyXq G H T E [ { 4.4.4...8.e.g.h.@.d s f $XV u -._ :X[.yXyXyXyXyXyXyXyXyXyXyXyX",
"yXyXyXyXyXyXyXyXyXyXyXyXyXyXyXyXyXyXyXyXyXyXyXyXyXyXyXq G K T E Q | ....5.6.8.g.g.h./ s &X=Xs h 7.y P.}.N.yXyXyXyXyXyXyXyXyXyXyX",
"yXyXyXyXyXyXyXyXyXyXyXyXyXyXyXyXyXyXyXyXyXyXyXyXyXyXyXyX9 G I T Q Q | ....5.8.e.g.h.8.` ' ' u *./ ; L.}.E.yXyXyXyXyXyXyXyXyXyXyX",
"yXyXyXyXyXyXyXyXyXyXyXyXyXyXyXyXyXyXyXyXyXyXyXyXyXyXyXyXyX9 J U E E Q ......6.8.8.g.h.7.p y ` w.: 5 ).`.}.C.yXyXyXyXyXyXyXyXyXyX",
"yXyXyXyXyXyXyXyXyXyXyXyXyXyXyXyXyXyXyXyXyXyXyXyXyXyXyXyXyXyX8 H U E Q Q ......8.8.g.g.h.@.h i.J X O.].J.'.[.yXyXyXyXyXyXyXyXyXyX",
"yXyXyXyXyXyXyXyXyXyXyXyXyXyXyXyXyXyXyXyXyXyXyXyXyXyXyXyXyXyXyXe J Y T Q { | ..5.6.e.r.g.h.g.] $ : _.G.K.!.[.yXyXyXyXyXyXyXyXyXyX",
"yXyXyXyXyXyXyXyXyXyXyXyXyXyXyXyXyXyXyXyXyXyXyXyXyXyXyXyXyXyXyXyXG H Y E ] | | ....8.q.r.h.#.& # ;.|.b.b.J.E.yXyXyXyXyXyXyXyXyXyX",
"yXyXyXyXyXyXyXyXyXyXyXyXyXyXyXyXyXyXyXyXyXyXyXyXyXyXyXyXyXyXyXyX0 G K Y E ] | ....8.q.e.W & O X.XXK.b.n.n.V.yXyXyXyXyXyXyXyXyXyX",
"yXyXyXyXyXyXyXyXyXyXyXyXyXyXyXyXyXyXyXyXyXyXyXyXyXyXyXyXyXyXyXyXyX8 G K Y E ] } ..6.| 0 # X j  XJ.b.b.b.z.yXyXyXyXyXyXyXyXyXyXyX",
"yXyXyXyXyXyXyXyXyXyXyXyXyXyXyXyXyXyXyXyXyXyXyXyXyXyXyXyXyXyXyXyXyXyX6 9 H Y E Q Y 0 $   % o. XG.j.z.b.b.l.yXyXyXyXyXyXyXyXyXyXyX",
"yXyXyXyXyXyXyXyXyXyXyXyXyXyXyXyXyXyXyXyXyXyXyXyXyXyXyXyXyXyXyXyXyXyXyX6 4 : * $ . . O t P.oXG.h.j.z.k.z.yXyXyXyXyXyXyXyXyXyXyXyX",
"yXyXyXyXyXyXyXyXyXyXyXyXyXyXyXyXyXyXyXyXyXyXyXyXyXyXyXyXyXyXyXyXyXyXyXyX/ P 6 4 0 X.f. XT.e.q.g.h.j.j.p.yXyXyXyXyXyXyXyXyXyXyXyX",
"yXyXyXyXyXyXyXyXyXyXyXyXyXyXyXyXyXyXyXyXyXyXyXyXyXyXyXyXyXyXyXyXyXyXyXyXyXT  .9.r.0.9.$...8.8.g.g.h.p.yXyXyXyXyXyXyXyXyXyXyXyXyX",
"yXyXyXyXyXyXyXyXyXyXyXyXyXyXyXyXyXyXyXyXyXyXyXyXyXyXyXyXyXyXyXyXyXyXyXyXyXyXG L Y E ] } 4.5.8.e.g.p.yXyXyXyXyXyXyXyXyXyXyXyXyXyX",
"yXyXyXyXyXyXyXyXyXyXyXyXyXyXyXyXyXyXyXyXyXyXyXyXyXyXyXyXyXyXyXyXyXyXyXyXyXyXyXG L Y Q { | ..5.8.7.yXyXyXyXyXyXyXyXyXyXyXyXyXyXyX",
"yXyXyXyXyXyXyXyXyXyXyXyXyXyXyXyXyXyXyXyXyXyXyXyXyXyXyXyXyXyXyXyXyXyXyXyXyXyXyXyXe U Y Q { #.#.yXyXyXyXyXyXyXyXyXyXyXyXyXyXyXyXyX",
"yXyXyXyXyXyXyXyXyXyXyXyXyXyXyXyXyXyXyXyXyXyXyXyXyXyXyXyXyXyXyXyXyXyXyXyXyXyXyXyXyXyXyXyXyXyXyXyXyXyXyXyXyXyXyXyXyXyXyXyXyXyXyXyX",
"yXyXyXyXyXyXyXyXyXyXyXyXyXyXyXyXyXyXyXyXyXyXyXyXyXyXyXyXyXyXyXyXyXyXyXyXyXyXyXyXyXyXyXyXyXyXyXyXyXyXyXyXyXyXyXyXyXyXyXyXyXyXyXyX",
"yXyXyXyXyXyXyXyXyXyXyXyXyXyXyXyXyXyXyXyXyXyXyXyXyXyXyXyXyXyXyXyXyXyXyXyXyXyXyXyXyXyXyXyXyXyXyXyXyXyXyXyXyXyXyXyXyXyXyXyXyXyXyXyX",
"yXyXyXyXyXyXyXyXyXyXyXyXyXyXyXyXyXyXyXyXyXyXyXyXyXyXyXyXyXyXyXyXyXyXyXyXyXyXyXyXyXyXyXyXyXyXyXyXyXyXyXyXyXyXyXyXyXyXyXyXyXyXyXyX",
"yXyXyXyXyXyXyXyXyXyXyXyXyXyXyXyXyXyXyXyXyXyXyXyXyXyXyXyXyXyXyXyXyXyXyXyXyXyXyXyXyXyXyXyXyXyXyXyXyXyXyXyXyXyXyXyXyXyXyXyXyXyXyXyX"
};
