/* XPM */
static char *result[] = {
/* columns rows colors chars-per-pixel */
"64 64 217 2 ",
"   c #0E0B0A",
".  c #130E0B",
"X  c #15110D",
"o  c #1A130D",
"O  c #141211",
"+  c #1C1812",
"@  c #221B13",
"#  c #21190F",
"$  c #2A251A",
"%  c #3B2E1A",
"&  c #352A18",
"*  c #2A2A23",
"=  c #393428",
"-  c #4A391D",
";  c #402F19",
":  c #4A3D26",
">  c #5D3A37",
",  c #543F21",
"<  c #77352D",
"1  c #732C26",
"2  c #5B5732",
"3  c #534829",
"4  c #624C26",
"5  c #6C552C",
"6  c #6F582B",
"7  c #745B2C",
"8  c #7B5E2C",
"9  c #79423D",
"0  c #625839",
"q  c #7E602B",
"w  c #68643A",
"e  c #77663A",
"r  c #5C5A54",
"t  c #5E5F59",
"y  c #57544B",
"u  c #6D4743",
"i  c #7C4B46",
"p  c #675E55",
"a  c #685E4B",
"s  c #6C634E",
"d  c #74664D",
"f  c #7A694A",
"g  c #767348",
"h  c #6C6452",
"j  c #66625B",
"k  c #69655E",
"l  c #676055",
"z  c #7A6958",
"x  c #7C735C",
"c  c #6B6965",
"v  c #676562",
"b  c #736A64",
"n  c #746E6A",
"m  c #796A66",
"M  c #75726C",
"N  c #7A746D",
"B  c #777562",
"V  c #787776",
"C  c #94271C",
"Z  c #912B21",
"A  c #95362E",
"S  c #A6372D",
"D  c #9F453D",
"F  c #AD4138",
"G  c #84642C",
"H  c #8C6A2E",
"J  c #88672D",
"K  c #916D2F",
"L  c #8D6C31",
"P  c #866935",
"I  c #926E30",
"U  c #957133",
"Y  c #9B7533",
"T  c #9F7834",
"R  c #96763C",
"E  c #A37B35",
"W  c #A67E39",
"Q  c #A87F39",
"!  c #894C46",
"~  c #885A54",
"^  c #954C45",
"/  c #897449",
"(  c #997C4B",
")  c #8B7353",
"_  c #857A75",
"`  c #88736C",
"'  c #AA8137",
"]  c #AC8339",
"[  c #A5813C",
"{  c #B1863A",
"}  c #B5893C",
"|  c #BB8D3E",
" . c #BF903F",
".. c #C1923F",
"X. c #978B4B",
"o. c #9C8B5C",
"O. c #9A8659",
"+. c #8E8C53",
"@. c #A88648",
"#. c #B48B43",
"$. c #B78E45",
"%. c #BD9242",
"&. c #BB934C",
"*. c #A48C55",
"=. c #BA9B55",
"-. c #BAA25A",
";. c #978D65",
":. c #9A9778",
">. c #B39B71",
",. c #AE9A62",
"<. c #BEB763",
"1. c #A6A774",
"2. c #B3B377",
"3. c #AEAE6D",
"4. c #C49441",
"5. c #C89742",
"6. c #C59945",
"7. c #CC9A43",
"8. c #CA9D4D",
"9. c #C5994A",
"0. c #D19E45",
"q. c #C29C50",
"w. c #CEA34D",
"e. c #D4A146",
"r. c #D9A447",
"t. c #D5A34A",
"y. c #DBA64A",
"u. c #DEA94C",
"i. c #CAA353",
"p. c #C8A45D",
"a. c #D4AB54",
"s. c #DBAB52",
"d. c #D3A757",
"f. c #DCB255",
"g. c #DAB45A",
"h. c #E4AC4C",
"j. c #E8AF4D",
"k. c #ECB24E",
"l. c #E7B04D",
"z. c #E5B353",
"x. c #EDB551",
"c. c #EEBA55",
"v. c #E2B45B",
"b. c #E3B95D",
"n. c #EBB95B",
"m. c #F1B651",
"M. c #F1BA54",
"N. c #F2BE5A",
"B. c #F0B54F",
"V. c #C4AA63",
"C. c #C6AF6B",
"Z. c #D5AF62",
"A. c #D7B866",
"S. c #CCBD75",
"D. c #E3BA63",
"F. c #EDBF62",
"G. c #EBC55D",
"H. c #F2C25C",
"J. c #F3C95D",
"K. c #CAC567",
"L. c #D8C969",
"P. c #C8C677",
"I. c #D6C874",
"U. c #DCD978",
"Y. c #ECC363",
"T. c #E5CA63",
"R. c #EBC469",
"E. c #E7C667",
"W. c #F3C563",
"Q. c #F3CB6A",
"!. c #F6CA67",
"~. c #EEDB6C",
"^. c #EBD269",
"/. c #F3D264",
"(. c #F4DC6C",
"). c #F7D36C",
"_. c #E4CA77",
"`. c #E8D874",
"'. c #F6D672",
"]. c #FAE06A",
"[. c #F4E16B",
"{. c #E6E378",
"}. c #F4E472",
"|. c #F9E571",
" X c #F5EC75",
".X c #F7EC78",
"XX c #FBF47B",
"oX c #FBF479",
"OX c #777C91",
"+X c #8B8986",
"@X c #958884",
"#X c #96928E",
"$X c #8B8A94",
"%X c #A39F9C",
"&X c #8289A2",
"*X c #8B92AC",
"=X c #B3B0AB",
"-X c #DBD088",
";X c #E2D387",
":X c #EBE589",
">X c #F6E684",
",X c #FEFF83",
"<X c #FFFF8C",
"1X c #F9F588",
"2X c #F3EC98",
"3X c #FEFF92",
"4X c #F9F899",
"5X c #EDE89D",
"6X c #FDFDAC",
"7X c #FDF7A4",
"8X c #FEFEBC",
"9X c #F5EBA7",
"0X c #FEFECC",
"qX c #FAF6C6",
"wX c #FEFED6",
"eX c #FFFFDA",
"rX c None",
/* pixels */
"rXrXrXrXrXrXrXrXrXrXrXrXrXrXrXrXrXrXrXrXrXrXrXrXrXrXrXrXrXrXrXrXrXrXrXrXrXrXrXrXrXrXrXrXrXrXrXrXrXrXrXrXrXrXrXrXrXrXrXrXrXrXrXrX",
"rXrXrXrXrXrXrXrXrXrXrXrXrXrXrXrXrXrXrXrXrXrXrXrXrXrXrXrXrXrXrXrXrXrXrXrXrXrXrXrXrXrXrXrXrXrXrXrXrXrXrXrXrXrXrXrXrXrXrXrXrXrXrXrX",
"rXrXrXrXrXrXrXrXrXrXrXrXrXrXrXrXrXrXrXrXrXrXrXrXrXrXrXrXrXrXrXrXrXrXrXrXrXrXrXrXrXrXrXrXrXrXrXrXrXrXrXrXrXrXrXrXrXrXrXrXrXrXrXrX",
"rXrXrXrXrXrXrXrXrXrXrXrXrXrXrXrXrXrXrXrXrXrXrXrXrXrXrXrXrXrXrXrXrXrXrXrXrXrXrXrXrXrXrXrXrXrXrXrXrXrXrXrXrXrXrXrXrXrXrXrXrXrXrXrX",
"rXrXrXrXrXrXrXrXrXrXrXrXrXrXrXrXrXrXrXrXrXrXrXrXrXrXrXrXrXrXrXrXrXrXrXrXrXrXrXrXrXrXrXrXrXrXrXrXrXrXrXrXrXrXrXrXrXrXrXrXrXrXrXrX",
"rXrXrXrXrXrXrXrXrXrXrXrXrXrXrXrXrXrXrXrXrXrXrXrXrXrXrXrXrXrXrXrXrXrXrXrXrXrXrXrXrXrXrXrXrXrXrXrXrXrXrXrXrXrXrXrXrXrXrXrXrXrXrXrX",
"rXrXrXrXrXrXrXrXrXrXrXrXrXrXrXrXrXrXrXrXrXrXrXrXrXrXrXrXrXrXrXrXrXrXrXrXrXrXrXrXrXrXrXrXrXrXrXrXrXrXrXrXrXrXrXrXrXrXrXrXrXrXrXrX",
"rXrXrXrXrXrXrXrXrXrXrXrXrXrXrXrXrXrXrXrXrXrXrXrXrXrXrXrXrXrXrXrXrXrXrXrXrXrXrXrXrXrXrXrXrXrXA.X.P ( @.rXrXrXrXrXrXrXrXrXrXrXrXrX",
"rXrXrXrXrXrXrXrXrXrXrXrXrXrXrXrXrXrXrXrXrXrXrXrXrXrXrXrXrXrXrXrXrXrXrXrXrXrXrXrXrXrXI.I.;X2X5Xo.0 e R #.=.rXrXrXrXrXrXrXrXrXrXrX",
"rXrXrXrXrXrXrXrXrXrXrXrXrXrXrXrXrXrXrXrXrXrXrXrXrXrXrXrXrXrXrXrXrXrXrXrXrXrXrXrXrX2X6X8X0XwX0XU.;X-X#.} 6.i.rXrXrXrXrXrXrXrXrXrX",
"rXrXrXrXrXrXrXrXrXrXrXrXrXrXrXrXrXrXrXrXrXrXrXrXrXrXrXrXrXrXrXrXrXrXrXrXrXrXrXrXS.0XeXeXeXeX0X;X`.2Xw. .5.t.g.A.rXrXrXrXrXrXrXrX",
"rXrXrXrXrXrXrXrXrXrXrXrXrXrXrXrXrXrXrXrXrXrXrXrXrXrXrXrXrXrXrXrXrXrXrXrXrXrXrX9._.wXeXeX0X8X6X2X(.>Xg.7.e.s.k.v.A.rXrXrXrXrXrXrX",
"rXrXrXrXrXrXrXrXrXrXrXrXrXrXrXrXrXrXrXrXrXrXrXrXrXrXrXrXrXrXrXrXrXrXrXrXrXrXrXd.W.qX0X8X6X4X3X3X>X`.I.;.=.z.z.k.z.A.rXrXrXrXrXrX",
"rXrXrXrXrXrXrXrXrXrXrXrXrXrXrXrXrXrXrXrXrXrXrXrXrXrXrXrXrXrXrXrXrXrXrXrXrXrXi.N.N.>X6X7X3X3X<X3X3XP.c OX$X>.s.x.m.n.rXrXrXrXrXrX",
"rXrXrXrXrXrXrXrXrXrXrXrXrXrXrXrXrXrXrXrXrXrXrXrXrXrXrXrXrXrXrXrXrXrXrXrXrXrXv.N.N.F.4X3X3X3X3X<X3X1X1.OX&X*X>.k.x.k.v.rXrXrXrXrX",
"rXrXrXrXrXrXrXrXrXrXrXrXrXrXrXrXrXrXrXrXrXrXrXrXrXrXrXrXrXrXrXrXrXrXrXrXrXs.F.N.M.M.).3X3X3X<X3X<X3X1X1.V &X:.H.k.k.m.I.rXrXrXrX",
"rXrXrXrXrXrXrXrXrXrXrXrXrXrXrXrXrXrXrXrXrXrXrXrXrXrXrXrXrXrXrXrXrXrXrXrXrXn.N.N.M.x.c..X<X<X<X<X<X<X,X1XP.v ;. Xn.x.N.F.rXrXrXrX",
"rXrXrXrXrXrXrXrXrXrXrXrXrXrXrXrXrXrXrXrXrXrXrXrXrXrXrXrXrXrXrXrXrXrXrXrX=.N.N.M.M.x.k.H.1X<X<X<X<X,X,X,X,XU.K. X(.N.N.g.rXrXrXrX",
"rXrXrXrXrXrXrXrXrXrXrXrXrXrXrXrXrXrXrXrXrXrXrXrXrXrXrXrXrXrXrXrXrXrXrX/ / N.M.c.x.k.m.k.H.,X,X<X,X,XXX,X,X<XoX~.`.E.v.i.=.rXrXrX",
"rXrXrXrXrXrXrXrXrXrXrXrXrXrXrXrXrXrXrXrXrXrXrXrXrXrXrXrXrXrXrXrXrXrXU.f 2 n.c.x.k.M.B.B.k.G.1X<X,X,X,X,X,XXX.X[.(.W.f.8.@.rXrXrX",
"rXrXrXrXrXrXrXrXrXrXrXrXrXrXrXrXrXrXrXrXrXrXrXrXrXrXrXrXrXrXrXrXrXrX:Xh = i.x.x.M.m.k.k.k.l.W.XX,X,X,X,X,XXX|.^.E.Y.s.#./ rXrXrX",
"rXrXrXrXrXrXrXrXrXrXrXrXrXrXrXrXrXrXrXrXrXrXrXrXrXrXrXrXrXrXrXrXrXZ.9XB * P x.x.B.B.m.k.l.j.l.G..X,X,X,X,XoX^.T.^.`.a.9.$.rXrXrX",
"rXrXrXrXrXrXrXrXrXrXrXrXrXrXrXrXrXrXrXrXrXrXrXrXrXrXrXrXrXrXrXrXp.F.9X:.$ = 4.m.m.m.k.k.l.l.h.h.b.}.,XXXXX.XA.b.b.f.G.|.A.rXrXrX",
"rXrXrXrXrXrXrXrXrXrXrXrXrXrXrXrXrXrXrXrXrXrXrXrXrXrXrXrXrXrXrXrXv.W.{.-X* X 5 h.m.k.k.l.j.z.h.s.r.t.L..XXX X(.(././.(.oX{.rXrXrX",
"rXrXrXrXrXrXrXrXrXrXrXrXrXrXrXrXrXrXrXrXrXrXrXrXrXrXrXrXrXrXrXg.W.D.g.oXw O $ U l.k.l.j.j.h.u.y.t.7.7.w.T.[.(.].].].].[.L.rXrXrX",
"rXrXrXrXrXrXrXrXrXrXrXrXrXrXrXrXrXrXrXrXrXrXrXrXrXrXrXrXrXrXp.F.W.*.x ~.K.$ + & W l.l.j.h.h.y.t.e.7.5.%.%.%.a.G./.(.^.g.rXrXrXrX",
"rXrXrXrXrXrXrXrXrXrXrXrXrXrXrXrXrXrXrXrXrXrXrXrXrXrXrXrXrXrXD.W.p.j t =.oXX.+ o % ' u.l.u.u.t.0.7.5.4.%.} ] E E [ [ U rXrXrXrXrX",
"rXrXrXrXrXrXrXrXrXrXrXrXrXrXrXrXrXrXrXrXrXrXrXrXrXrXrXrXrXZ.W.D.z v r d T. Xw o X % T y.u.t.e.7.5.4. .} ] [ Y H J 7 rXrXrXrXrXrX",
"rXrXrXrXrXrXrXrXrXrXrXrXrXrXrXrXrXrXrXrXrXrXrXrXrXrXrXrXV.F.!.O.j b l s +.~.{.2 X o & q 7.t.7.5.4.%.} { [ T U H q rXrXrXrXrXrXrX",
"rXrXrXrXrXrXrXrXrXrXrXrXrXrXrXrXrXrXrXrXrXrXrXrXrXrXrXrXF.!.-.j n V M j a *.[.U.2 O O $ 4 ] 5.5.4. .{ [ T U H q 6 rXrXrXrXrXrXrX",
"rXrXrXrXrXrXrXrXrXrXrXrXrXrXrXrXrXrXrXrXrXrXrXrXrXrXrXZ.!.D.x +XN v N x t s w. X{.s +   . % 8 ] | { ' E Y H q 6 rXrXrXrXrXrXrXrX",
"rXrXrXrXrXrXrXrXrXrXrXrXrXrXrXrXrXrXrXrXrXrXrXrXrXrXrXY.Q.O.c #Xy 0 k k k d t.l.~.1X+.$   . + % 5 L Y U J q 7 rXrXrXrXrXrXrXrXrX",
"rXrXrXrXrXrXrXrXrXrXrXrXrXrXrXrXrXrXrXrXrXrXrXrXrXrXD.Q.V.j c p < 8 d n p &.j.h.u.E.1XP.w @ . . . # & & % rXrXrXrXrXrXrXrXrXrXrX",
"rXrXrXrXrXrXrXrXrXrXrXrXrXrXrXrXrXrXrXrXrXrXrXrXrXZ.Q.E.z v ` 9 ! ) N p ( j.j.y.r.e.g.~..X<.w % @ o o @ : rXrXrXrXrXrXrXrXrXrXrX",
"rXrXrXrXrXrXrXrXrXrXrXrXrXrXrXrXrXrXrXrXrXrXrXrXrXR.Q.o.V _ ^ S ! #Xn / h.h.h.0.e.7.5.4.a.T.^.L.q.@.@.U rXrXrXrXrXrXrXrXrXrXrXrX",
"rXrXrXrXrXrXrXrXrXrXrXrXrXrXrXrXrXrXrXrXrXrXrXrXD.).V.c +X_ A C u n a 8.j.h.y.r.0.5.4.4.#.} #.%.8.9.[ rXrXrXrXrXrXrXrXrXrXrXrXrX",
"rXrXrXrXrXrXrXrXrXrXrXrXrXrXrXrXrXrXrXrXrXrXrXZ.Q.D.x c m F 1 > b p $.j.h.y.r.0.7.5...| { Q E U H 8 5 rXrXrXrXrXrXrXrXrXrXrXrXrX",
"rXrXrXrXrXrXrXrXrXrXrXrXrXrXrXrXrXrXrXrXrXrXrXR.).;.v N ! F ! c v ( j.h.y.r.0.7.4.4.| } ' E Y L G 6 rXrXrXrXrXrXrXrXrXrXrXrXrXrX",
"rXrXrXrXrXrXrXrXrXrXrXrXrXrXrXrXrXrXrXrXrXrXA.).V.V +X~ < 9 #XN f y.j.h.r.0.7.4.4.| } ] E Y I G 7 rXrXrXrXrXrXrXrXrXrXrXrXrXrXrX",
"rXrXrXrXrXrXrXrXrXrXrXrXrXrXrXrXrXrXrXrXrXrXQ.E.B V @XS Z > m p 8.j.h.y.0.7.5.4...} ] E T I J 7 rXrXrXrXrXrXrXrXrXrXrXrXrXrXrXrX",
"rXrXrXrXrXrXrXrXrXrXrXrXrXrXrXrXrXrXrXrXrXA.'.;.j b i Z 1 b p @.j.h.r.0.0.........{ E E U J 7 rXrXrXrXrXrXrXrXrXrXrXrXrXrXrXrXrX",
"rXrXrXrXrXrXrXrXrXrXrXrXrXrXrXrXrXrXrXrXS.V.C.M V ~ S m m v ( h.h.h.0.0.........] E E U J 8 rXrXrXrXrXrXrXrXrXrXrXrXrXrXrXrXrXrX",
"rXrXrXrXrXrXrXrXrXrXrXrXrXrXrXrXrXrXrXI.2.,.;.M %XD Z ` _ d t.h.h.r.0.0.......{ E E U H q rXrXrXrXrXrXrXrXrXrXrXrXrXrXrXrXrXrXrX",
"rXrXrXrXrXrXrXrXrXrXrXrXrXrXrXrXrXrXrX_.2.;.o.r +X_ u b h 9.k.h.r.0.7.4.....{ Q E Y J G rXrXrXrXrXrXrXrXrXrXrXrXrXrXrXrXrXrXrXrX",
"rXrXrXrXrXrXrXrXrXrXrXrXrXrXrXrXrXrXZ.|.2.h &.a n =X+Xl @.l.l.y.0.0.......} Q E Y K G 5 rXrXrXrXrXrXrXrXrXrXrXrXrXrXrXrXrXrXrXrX",
"rXrXrXrXrXrXrXrXrXrXrXrXrXrXrXrXrXrXR.(.<.= } O.p +XM / u.l.y.r.0.7.....| Q E Y K G 7 rXrXrXrXrXrXrXrXrXrXrXrXrXrXrXrXrXrXrXrXrX",
"rXrXrXrXrXrXrXrXrXrXrXrXrXrXrXrXrXA.).).L.= 4 w.f r d e.l.u.r.0.......| ] E E I G 7 rXrXrXrXrXrXrXrXrXrXrXrXrXrXrXrXrXrXrXrXrXrX",
"rXrXrXrXrXrXrXrXrXrXrXrXrXrXrXrXrX_.(.H.[.e @ Q =.d %.l.h.r.0.7.......{ E E I J 8 rXrXrXrXrXrXrXrXrXrXrXrXrXrXrXrXrXrXrXrXrXrXrX",
"rXrXrXrXrXrXrXrXrXrXrXrXrXrXrXrXrX_.!.M./.K.$ % ..y.l.h.y.e.0.7...| } E T Y J 8 rXrXrXrXrXrXrXrXrXrXrXrXrXrXrXrXrXrXrXrXrXrXrXrX",
"rXrXrXrXrXrXrXrXrXrXrXrXrXrXrXrXrXR.M.M.M.|.+.X , e.h.u.r.0.......{ Q E U H 8 rXrXrXrXrXrXrXrXrXrXrXrXrXrXrXrXrXrXrXrXrXrXrXrXrX",
"rXrXrXrXrXrXrXrXrXrXrXrXrXrXrXrXrXv.M.M.m.J.}.w o ,  .y.e.7... .} ' E U H G rXrXrXrXrXrXrXrXrXrXrXrXrXrXrXrXrXrXrXrXrXrXrXrXrXrX",
"rXrXrXrXrXrXrXrXrXrXrXrXrXrXrXrXrXd.m.m.m.m./.`.2 X & L  .7. .} ' E Y H G 5 rXrXrXrXrXrXrXrXrXrXrXrXrXrXrXrXrXrXrXrXrXrXrXrXrXrX",
"rXrXrXrXrXrXrXrXrXrXrXrXrXrXrXrXrXrXz.m.m.B.l.J.{.g +   % J ' ' E Y K 8 5 rXrXrXrXrXrXrXrXrXrXrXrXrXrXrXrXrXrXrXrXrXrXrXrXrXrXrX",
"rXrXrXrXrXrXrXrXrXrXrXrXrXrXrXrXrXrXd.m.B.k.j.h.T..X1.3 X X + & - , 3 5 rXrXrXrXrXrXrXrXrXrXrXrXrXrXrXrXrXrXrXrXrXrXrXrXrXrXrXrX",
"rXrXrXrXrXrXrXrXrXrXrXrXrXrXrXrXrXrXrXs.B.j.h.h.r.s.^.`.-.e 3 - 4 P R rXrXrXrXrXrXrXrXrXrXrXrXrXrXrXrXrXrXrXrXrXrXrXrXrXrXrXrXrX",
"rXrXrXrXrXrXrXrXrXrXrXrXrXrXrXrXrXrXrXrXh.j.h.h.0.7.4.8.a.f.u.w.%.T rXrXrXrXrXrXrXrXrXrXrXrXrXrXrXrXrXrXrXrXrXrXrXrXrXrXrXrXrXrX",
"rXrXrXrXrXrXrXrXrXrXrXrXrXrXrXrXrXrXrXrXrXt.h.0.0.5...} ' E T L 8 rXrXrXrXrXrXrXrXrXrXrXrXrXrXrXrXrXrXrXrXrXrXrXrXrXrXrXrXrXrXrX",
"rXrXrXrXrXrXrXrXrXrXrXrXrXrXrXrXrXrXrXrXrXrX8.8.5...| { E Y L q rXrXrXrXrXrXrXrXrXrXrXrXrXrXrXrXrXrXrXrXrXrXrXrXrXrXrXrXrXrXrXrX",
"rXrXrXrXrXrXrXrXrXrXrXrXrXrXrXrXrXrXrXrXrXrXrXrX#.| ] W T L 8 rXrXrXrXrXrXrXrXrXrXrXrXrXrXrXrXrXrXrXrXrXrXrXrXrXrXrXrXrXrXrXrXrX",
"rXrXrXrXrXrXrXrXrXrXrXrXrXrXrXrXrXrXrXrXrXrXrXrXrXrXrXrXrXrXrXrXrXrXrXrXrXrXrXrXrXrXrXrXrXrXrXrXrXrXrXrXrXrXrXrXrXrXrXrXrXrXrXrX",
"rXrXrXrXrXrXrXrXrXrXrXrXrXrXrXrXrXrXrXrXrXrXrXrXrXrXrXrXrXrXrXrXrXrXrXrXrXrXrXrXrXrXrXrXrXrXrXrXrXrXrXrXrXrXrXrXrXrXrXrXrXrXrXrX",
"rXrXrXrXrXrXrXrXrXrXrXrXrXrXrXrXrXrXrXrXrXrXrXrXrXrXrXrXrXrXrXrXrXrXrXrXrXrXrXrXrXrXrXrXrXrXrXrXrXrXrXrXrXrXrXrXrXrXrXrXrXrXrXrX",
"rXrXrXrXrXrXrXrXrXrXrXrXrXrXrXrXrXrXrXrXrXrXrXrXrXrXrXrXrXrXrXrXrXrXrXrXrXrXrXrXrXrXrXrXrXrXrXrXrXrXrXrXrXrXrXrXrXrXrXrXrXrXrXrX",
"rXrXrXrXrXrXrXrXrXrXrXrXrXrXrXrXrXrXrXrXrXrXrXrXrXrXrXrXrXrXrXrXrXrXrXrXrXrXrXrXrXrXrXrXrXrXrXrXrXrXrXrXrXrXrXrXrXrXrXrXrXrXrXrX"
};
