/* XPM */
static char *result[] = {
/* columns rows colors chars-per-pixel */
"64 64 238 2 ",
"   c #191716",
".  c #110C0D",
"X  c #221D1B",
"o  c #2A2626",
"O  c #28363A",
"+  c #383838",
"@  c #302D31",
"#  c #433837",
"$  c #2B3A42",
"%  c #363948",
"&  c #3B3D52",
"*  c #473D48",
"=  c #2A4144",
"-  c #2C444A",
";  c #2D4B4C",
":  c #27494A",
">  c #33464B",
",  c #2D4C53",
"<  c #344D53",
"1  c #3A4757",
"2  c #2E5154",
"3  c #335455",
"4  c #35565C",
"5  c #345B5C",
"6  c #395C5C",
"7  c #3A5558",
"8  c #3D4962",
"9  c #335B63",
"0  c #3A5E64",
"q  c #395768",
"w  c #2F5A63",
"e  c #356264",
"r  c #3A6465",
"t  c #3B666B",
"y  c #3C6A6D",
"u  c #33666C",
"i  c #3C6C72",
"p  c #376976",
"a  c #3D737B",
"s  c #3B7577",
"d  c #37696F",
"f  c #3D605B",
"g  c #474749",
"h  c #464959",
"j  c #48575B",
"k  c #57595A",
"l  c #574F4C",
"z  c #645957",
"x  c #434D62",
"c  c #484D6A",
"v  c #455363",
"b  c #47586A",
"n  c #53526B",
"m  c #545867",
"M  c #485A78",
"N  c #575974",
"B  c #504E65",
"V  c #625C6F",
"C  c #416B6B",
"Z  c #466769",
"A  c #596869",
"S  c #58706F",
"D  c #4C6D74",
"F  c #486677",
"G  c #55677A",
"H  c #437273",
"J  c #447479",
"K  c #4C747A",
"L  c #457A7B",
"P  c #4B7D7C",
"I  c #4A7676",
"U  c #537B7D",
"Y  c #587778",
"T  c #49716E",
"R  c #6B6868",
"E  c #776B68",
"W  c #7C716D",
"Q  c #65637B",
"!  c #756B77",
"~  c #66767A",
"^  c #797878",
"/  c #867C78",
"(  c #8C746B",
")  c #4C807E",
"_  c #50817E",
"`  c #67847F",
"'  c #8C837D",
"]  c #998378",
"[  c #396E82",
"{  c #3A7686",
"}  c #3C7D92",
"|  c #4E5C86",
" . c #4B6A8A",
".. c #586586",
"X. c #4C7E82",
"o. c #447887",
"O. c #5C7A84",
"+. c #597787",
"@. c #4D6B92",
"#. c #497895",
"$. c #597996",
"%. c #586A93",
"&. c #616B82",
"*. c #686988",
"=. c #6A7888",
"-. c #777588",
";. c #666E95",
":. c #6C7C92",
">. c #68759A",
",. c #747293",
"<. c #7C7B9C",
"1. c #767997",
"2. c #726C89",
"3. c #5A78A3",
"4. c #687AA6",
"5. c #847887",
"6. c #847B99",
"7. c #917E87",
"8. c #867DA1",
"9. c #3F8694",
"0. c #3E8AA1",
"q. c #4C8384",
"w. c #4C8689",
"e. c #4D8A8C",
"r. c #488687",
"t. c #548584",
"y. c #538C8B",
"u. c #598788",
"i. c #59918D",
"p. c #458696",
"a. c #538D91",
"s. c #5B8996",
"d. c #579393",
"f. c #5B9493",
"g. c #5D9996",
"h. c #5D9B9B",
"j. c #599699",
"k. c #4D939E",
"l. c #658789",
"z. c #7A8586",
"x. c #66938E",
"c. c #698796",
"v. c #768799",
"b. c #6B9A94",
"n. c #639D9A",
"m. c #6A9C9A",
"M. c #669597",
"N. c #769996",
"B. c #5EA39C",
"V. c #64A29E",
"C. c #6AA29E",
"Z. c #7BA49A",
"A. c #79A69D",
"S. c #5A86AB",
"D. c #4A93A9",
"F. c #528DA8",
"G. c #798AA6",
"H. c #689AA3",
"J. c #7799A8",
"K. c #6888B1",
"L. c #728EB4",
"P. c #688DB0",
"I. c #59A2B0",
"U. c #64A3A1",
"Y. c #6AA6A2",
"T. c #6BA9A5",
"R. c #6CACAA",
"E. c #68A7A9",
"W. c #72A4A3",
"Q. c #72ADAB",
"!. c #77A7A8",
"~. c #6BB0AD",
"^. c #72B2AD",
"/. c #7AB3AD",
"(. c #6AAEB4",
"). c #7CAAB6",
"_. c #6DB1B4",
"`. c #74B4B2",
"'. c #7AB4B2",
"]. c #7CBAB6",
"[. c #77B9B8",
"{. c #7DC2C1",
"}. c #968B86",
"|. c #958998",
" X c #8C9595",
".X c #979596",
"XX c #8A898C",
"oX c #A89590",
"OX c #81A99E",
"+X c #9AA19E",
"@X c #AFA39C",
"#X c #8786A7",
"$X c #978BAA",
"%X c #8793AB",
"&X c #8A99B5",
"*X c #9598B7",
"=X c #9191AC",
"-X c #AC98B7",
";X c #83ACA1",
":X c #88A6A7",
">X c #8CB5A9",
",X c #87B3A9",
"<X c #91BBAE",
"1X c #91B7AE",
"2X c #88ABB6",
"3X c #97A4B9",
"4X c #86B9B8",
"5X c #95BCB6",
"6X c #9BA7A4",
"7X c #BBBBB8",
"8X c #AEA9B2",
"9X c #CCAB9A",
"0X c #C5B9A8",
"qX c #85C1BD",
"wX c #9AC3B8",
"eX c #A2C8BC",
"rX c #BAC1BC",
"tX c #D9C2AB",
"yX c #EBD4BB",
"uX c #85B8C3",
"iX c #97B4C2",
"pX c #A6A9C5",
"aX c #A7BBC7",
"sX c #BBB1C9",
"dX c #C4AFCC",
"fX c #8AC5C2",
"gX c #9DCECA",
"hX c #97C8C5",
"jX c #A6CBC6",
"kX c #A3D1CD",
"lX c #ADD1C6",
"zX c #B4D5CB",
"xX c #BBD9CE",
"cX c #AECCD0",
"vX c #CCD3CC",
"bX c #E5E4DD",
"nX c #E1E4E1",
"mX c None",
/* pixels */
"mXmXmXmXmXmXmXmXmXmXmXmXmXmXmXmXmXmXmXmXmXmXmXmXmXmXmXmXmXmXmXmXmXmXmXmXmXmXmXmXmXmXmXmXmXmXmXmXmXmXmXmXmXmXmXmXmXmXmXmXmXmXmXmX",
"mXmXmXmXmXmXmXmXmXmXmXmXmXmXmXmXmXmXmXmXmXmXmXmXmXmXmXmXmXmXmXmXmXmXmXmXmXmXmXmXmXmXmXmXmXmXmXmXmXmXmXmXmXmXmXmXmXmXmXmXmXmXmXmX",
"mXmXmXmXmXmXmXmXmXmXmXmXmXmXmXmXmXmXmXmXmXmXmXmXmXmXmXmXmXmXmXmX7X@XmXmXmXmXmXmXmXmXmXmXmXmXmXmXmXmXmXmXmXmXmXmXmXmXmXmXmXmXmXmX",
"mXmXmXmXmXmXmXmXmXmXmXmXmXmXmXmXmXmXmXmXmXmXmXmXmXmXmXmXmXmXmXmXR E }.mXmXmXmXmXmXmXmXmXmXmXmXmXmXmXmXmXmXmXmXmXmXmXmXmXmXmXmXmX",
"mXmXmXmXmXmXmXmXmXmXmXmXmXmXmXmXmXmXmXmXmXmXmXmXmXM.c.H.H.J.!.s.I Y l.mXmXmXmXmXmXmXmXmXmXmXmXmXmXmXmXmXmXmXmXmXmXmXmXmXmXmXmXmX",
"mXmXmXmXmXmXmXmXmXmXmXmXmXmXmXmXmXmXmXmXmXoX0X5XH.v.c.n.W.J.~ y a r.e.h.mXmXmXmXmXmXmXmXmXmXmXmXmXmXmXmXmXmXmXmXmXmXmXmXmXmXmXmX",
"mXmXmXmXmXmXmXmXmXmXmXmXmXmXmXmXmXmXmXmXR ' .Xn.p.M.H.V.V.y.e s 9.e.d.mXmXmXmXmXmXmXmXmXmXmXmXmXmXmXmXmXmXmXmXmXmXmXmXmXmXmXmXmX",
"mXmXmXmXmXmXmXmXmXmXmXmXmXmXmXmXmXmXmXR z ( k H w.e.X.s s s u P Z.A.W.mXmXmXmXmXmXmXmXmXmXmXmXmXmXmXmXk 7XmXmXmXmXmXmXmXmXmXmXmX",
"mXmXmXmXmXmXmXmXmXmXmXmXmXmXmXmXmXmXmXmXl g O u a e e e s q._ +XvX7XR.gXmXmXmXmXmXmXmXmXmXmXmXmXmXmX~  XvXnXmXmXmXmXmXmXmXmXmXmX",
"mXmXmXmXmXmXmXmXmXmXmXmXmXmXmXmXmXmXmXmXmXmX{ } s w e Z XX6X!.!.z.s._.hXkXjX3X$X=X3X2X5XjXcXmXmXmXmX~ XX+X.XmXmXmXmXmXmXmXmXmXmX",
"mXmXmXmXmXmXmXmXmXmXmXmXmXmXmXmXmXmXmXmXmXmXF.0.{ u 2 Y  Xu.y.r.q.w.^.gXkXkX:X&.&.c.M.m.H.Q.hXmXmXmXh > > k mX~ -.j ^ mXmXmXmXmX",
"mXmXmXmXmXmXmXmXmXmXmXmXmXmXmXmXmXmXmXmXmXmXD.k.k.U.g.y.V.g.3 = : e /.gXkXcXkXW.n.m.n.U.U.E.`.hXmXmXmXmXmXmXmX&.z.z.6XrXmXmXmXmX",
"mXmXmXmXmXmXmXmXmXmXmXmXmXmXmXmXmXmXmXmXc.k.0.I.(.`.].{.qXV.T T H T.hXkXkXgXgXfX]./.Y.b.V.Y.;X3XaXmXmXmXmXmXmXS ~ ` .X XmXmXmXmX",
"mXmXmXmXmXmXmXmXmXmXmXmXmXmXmXmXmXmXv.F 2 u 0.I.(.~.].qXqXqXqXhXfX[.{.fX{.[.gXfX].m.r : < l. X.X.X@X}.XXmXmXmXmXk A ~ mXmXmXmXmX",
"mXmXmXmXmXmXmXmXmXmXmXmXmXmXmXmXmX%XF : = , 9.(.[.].[.R.g.V.`.]._.(.E.E._.fXkXfX].m.3 g z R R W ' }..X}.^ mXmXmXmXmXmXmXmXmXmXmX",
"mXmXmXmXmXmXmXmXmXmXmXmXmXmXmXmX%XM , $ O : p._.[.].R.g.L s ) q.e.d.B._.{.kXkXhX4XQ.A k W A ! 6.5./ }./ E ' ^ mXmXmXmXmXmXmXmXmX",
"mXmXmXmXmXmXmXmXmXmXmXmXmXmXmXG.F 4 $ $ O $ t F._.^.V.g.y.e.e.i.B.B.~.qXhXkXgXgX/.Y # @ o X z -XsX|./ ! ^ / .XmXmXmXmXmXmXmXmXmX",
"mXmXmXmXmXmXmXmXmXmXmXmXmXmXJ.o.0 q & $ O $ < y j.R.n.n.i.g.g.B.~.`.^.qXhXhXqXqXu.= X o o X # ( -XdX|./ }./ @X.XmXmXmXmXmXmXmXmX",
"mXmXmXmXmXmXmXmXmXmXmXmXaX!.o.o.X.F 1 % % $ $ 2 H B.i.V.V.V.V.T.~.^.^./.].]./.Q.Z @ + # @ o X   k dX-X5./ .X@XmXmXmXmXmXmXmXmXmX",
"mXmXmXmXmXmXmXmXmXmXmXmX).p.r.a.M.:.G h $ @ $ , 5 J t.g.n.V.n.Y.^.^.^.V.C.^.C.D = j ( ] ( ( l . . |.dX5.}.}.}.oXmXmXmXmXmXmXmXmX",
"mXmXmXmXmXmXmXmXmXmXmXmXI.9.r.w.s.:.:.G & O $ % 2 5 y q.g.V.V.V.T.T.T.^.R.C.Z ^ l W ] 9XoXtXtX# . * -X5.}.}.}.+XmXmXmXmXmXmXmXmX",
"mXmXmXmXmXmXmXmXmXmXmXmX(.9.{ a X.U K U F x > $ : ; 3 e q.V.V.V.C.T.^.^.t.< % A z ( ( oX9XyXyX( # @ 6.5./ / XX8XsXmXmXmXmXmXmXmX",
"mXmXmXmXmXmXmXmXmXmXmXmXuXD.} { H i y X.t.O.D ; O = = ; 5 H i.n.b.i.i.C O O c n n n R W 7.-X9X/ g + V 5./ ^ .XpXpXmXmXmXmXmXmXmX",
"mXmXmXmXmXmXmXmXmXmXmXmXmXS.9.p a y Z +.:.,.v.O.< : O O = = ; f f ) f O O $ c n N V Q 2.6.8.$X$X! z =.N. Xm.R.J.*XaXmXmXmXmXmXmX",
"mXmXmXmXmXmXmXmXmXmXmXmXmXP.{ p p q F &.*.<.#X#XO.3 ; = ; C I t.) y = O O O h v n Q Q Q 6.$X$X-X=.j u.`.`._._.J.%X*XmXmXmXmXmXmX",
"mXmXmXmXmXmXmXmXmXmXmXmXmXL.[ q b n *.*.,.<.8.=XJ.w.y H _ C.,XqXA.f > = O O h -.v.:XN.^ }.|.|..X-.D ) i.H.`._.(.L.&XcXmXmXmXmXmX",
"mXmXmXmXmXmXmXmXmXmXmXmXmXL.p q n N *.,.8.<.#X*X2XU.e.d.n.Y.4X,XC.S XXN.> = v ~ .XvXnXnXbXbXvX7X^ b 5 y L B.E.E.H.).mXmXmXmXmXmX",
"mXmXmXmXmXmXmXmXmXmXmXmXmX2X{ q n N N *.<.#X=X&X2X2XH.H.Y.C./.A._ T ` tX` T s.M.x.b..X7XvX3X4X!.l.O.y i L d.h.M.H.2XmXmXmXmXmXmX",
"mXmXmXmXmXmXmXmXmXmXmXmXmX).#.q x x N &.c.:.v.G.%X3X3X3X2X)./.b.Y f S z.6XA.^.].4X` % m x.`.`.^.U.n.V.h.e.d.u.$.H.iXmXmXmXmXmXmX",
"mXmXmXmXmXmXmXmXmXmXmXmXmXH.[ q 4 F K K K G N &.,.G.<.$X&X2XQ.Q.^.b.~ l./.Q.'.].4XOXY M.`.].R.E.U.P t.y.r.q.$.s.!.mXmXmXmXmXmXmX",
"mXmXmXmXmXmXmXmXmXmXmXmXmXI.{ u 9 H i r b v b N ,.1.,.8.#XG.U.n.V.Q.b.T.^.`.`.`.^.[.`.^.R.Q.'.`.t.; 5 i q.$.S.J.iXmXmXmXmXmXmXmX",
"mXmXmXmXmXmXmXmXmXmXmXmXmXF.p e u u e r r v N Q Q ,.<.,.,.c.f.h.V.T.V.~.^.T.T.T.V.T.^.`.R.H._.Q.u.i J X.s.J.2XmXmXmXmXmXmXmXmXmX",
"mXmXmXmXmXmXmXmXmXmXmXmX).p.p q q 0 e y 4 1 h N V Q *.,.*...u.y.i.B.g.R.Y.n.V.V.C.n.Y.^.^.E.`.mXmXJ.m.).iXmXmXmXmXmXmXmXmXmXmXmX",
"mXmXmXmXmXmXmXmXmXmXmXmXI.} p 8 8 1 7 4 0 7 h h n n n n N A H P H P t.u.O.u.u.u.g.i.i.g.U.R.mXmXmXmXmXmXmXmXmXmXmXmXmXmXmXmXmXmX",
"mXmXmXmXmXmXmXmXmXmXmXmXJ.#.M c 8 1 1 1 3 7 7 h h & * & h v 6 C 6 Z Q N n N Z K t.q.t.w.h.4XmXmXmXmXmXmXmXmXmXmXmXmXmXmXmXmXmXmX",
"mXmXmXmXmXmXmXmXmXmXmXmX&X$.| | c 8 & > ; ; 3 e C h > > < 7 ; 5 5 < h B B h h Z H J y.n.W.mXmXmXmXmXmXmXmXmXmXmXmXmXmXmXmXmXmXmX",
"mXmXmXmXmXmXmXmXmXmXmXmXiXL.;.| M c & % $ - < 2 r 9 3 ; < 3 = - 4 j h m n B n G u.!.4XfXgXmXmXmXmXmXmXmXmXmXmXmXmXmXmXmXmXmXmXmX",
"mXmXmXmXmXmXmXmXmXmXmXmXmX3X4.;...N c & & > < 3 3 5 < ; 3 5 < > 4 C G ..*.Q ..M.5XlXzXzXlXmXmXmXmXmXmXmXmXmXmXmXmXmXmXmXmXmXmXmX",
"mXmXmXmXmXmXmXmXmXmXmXmXmXsX*XL.;.*.*.n B x 6 r 5 3 5 e e 5 < j v r P O.O.Y l.1XzXlXzXcXjXmXmXmXmXmXmXmXmXmXmXmXmXmXmXmXmXmXmXmX",
"mXmXmXmXmXmXmXmXmXmXmXmXmXmXpX&X4.4.;.;...G F s u e y s s y 0 b m v C U ` N.eXlXzXzXzXlXjXmXmXmXmXmXmXmXmXmXmXmXmXmXmXmXmXmXmXmX",
"mXmXmXmXmXmXmXmXmXmXmXmXmXmXmXpXL.4.>.>.%.;.+.{ o.p p o.s 6 f g j j ` A.eXeXvXxXxXxXxXlXiXmXmXmXmXmXmXmXmXmXmXmXmXmXmXmXmXmXmXmX",
"mXmXmXmXmXmXmXmXmXmXmXmXmXmXmXmXL.3. .%....... .o.a i y e 3 3 Z l.N.<XwXeXzXxXxXxXeXlXgXjXmXmXmXmXmXmXmXmXmXmXmXmXmXmXmXmXmXmXmX",
"mXmXmXmXmXmXmXmXmXmXmXmXmXmXmXmXK. .M | b 8 1 4 0 0 5 r C T l.OX>XwXeXwXeXeXeXeXzXeXlXgXiXmXmXmXmXmXmXmXmXmXmXmXmXmXmXmXmXmXmXmX",
"mXmXmXmXmXmXmXmXmXmXmXmXmXmXmXmXK.@.| 8 , % ; $ < 6 C ) x.x./.wX<X>XwXwXeXeXeXwXeXeXkXwX,XmXmXmXmXmXmXmXmXmXmXmXmXmXmXmXmXmXmXmX",
"mXmXmXmXmXmXmXmXmXmXmXmXmXmXmXmXK.@.| M 8 6 t C r H P y.i.b./.<X>X>XwXwX>XwXwX>XeXeXhX5XJ.!.mXmXmXmXmXmXmXmXmXmXmXmXmXmXmXmXmXmX",
"mXmXmXmXmXmXmXmXmXmXmXmXmXmXmXmXL.%.| M M s L I u.t.y.t.t.b.Z.;XOX>X<X<X>X>X<XwXwXgX4XJ.v.%XmXmXmXmXmXmXmXmXmXmXmXmXmXmXmXmXmXmX",
"mXmXmXmXmXmXmXmXmXmXmXmXmXmXmXmXmX3.%.| F J P ) d.y.i.) _ b.b.A.OX>X>X>X;X>X>X>X,X,XN.v.#X=XpXmXmXmXmXmXmXmXmXmXmXmXmXmXmXmXmXmX",
"mXmXmXmXmXmXmXmXmXmXmXmXmXmXmXmXmX3.@. .C y L O.l.x.C.i._ ` b.;X;X>XOXOX;X>X;X;XA.A.v.v.#X%X3XmXmXmXmXmXmXmXmXmXmXmXmXmXmXmXmXmX",
"mXmXmXmXmXmXmXmXmXmXmXmXmXmXmXmXmXS.D.{ [  .N &.1.#X%Xm.i._ b.OX;X;X;X;X,X,XA.A.C.C.m.m.W.J.uXmXmXmXmXmXmXmXmXmXmXmXmXmXmXmXmXmX",
"mXmXmXmXmXmXmXmXmXmXmXmXmXmXmXmXL.S.0.} o.*...,.8.*X=X2X^.n.b.Z.Z.N.OXZ.OXA.b.b.n.U.U.Y./.T.2XmXmXmXmXmXmXmXmXmXmXmXmXmXmXmXmXmX",
"mXmXmXmXmXmXmXmXmXmXmXmXmXmXmXmXS.3.#.[ @.>.,.8.#X=X#X*X4XV.m.x.b.Z.Z.N.Z.` _ t.g.V.T.T./.4XuXaXmXmXmXmXmXmXmXmXmXmXmXmXmXmXmXmX",
"mXmXmXmXmXmXmXmXmXmXmXmXmXmXmXL.p. .{ p $.<.,.<.8.#X6.*X2XC.m.x.b.Z.b.x._ H P w.y.V.V.Y.Q.].4XpXmXmXmXmXmXmXmXmXmXmXmXmXmXmXmXmX",
"mXmXmXmXmXmXmXmXmXmXmXmXmXmXmXK.#.#.0.a >.,.*.2.,.,.<.v.Q.Q.Y.b.N.Z.b.t.Z r q.t.L g.h.i.n.Q.W.2XmXmXmXmXmXmXmXmXmXmXmXmXmXmXmXmX",
"mXmXmXmXmXmXmXmXmXmXmXmXmXmXK.4.@.#.p.[  ...*.*.&.2.:.=.m./.mXmXmXmXmXT 2 5 I L J y.f.t.a.m.!.iXmXmXmXmXmXmXmXmXmXmXmXmXmXmXmXmX",
"mXmXmXmXmXmXmXmXmXmXmXmX#.} #.@. .{ p.L y Z ..O.G O.O.c.m.,XmXmXmXmXmXr 5 e L J H X.u.c.c.M.J.iXmXmXmXmXmXmXmXmXmXmXmXmXmXmXmXmX",
"mXmXmXmXmXmXmXmXmXo.o.@.#.[ u p t { p. .K K t.P u.i.:.#X=X&XmXmXmXmXmXX.r.q.q.J G =.:.<.G.H.H.'.mXmXmXmXmXmXmXmXmXmXmXmXmXmXmXmX",
"mXmXmXmXmXmXX.p p u q  .| q 3 5 Z o.3.;.:.:.+.) y.m.N.v.G.2XmXmXmXmXmXJ w.w.X.+.+.+.=.c.H.Q.R.T.Q.4XmXmXmXmXmXmXmXmXmXmXmXmXmXmX",
"mXmXmXmXp.p q w w w q q v b Z K mXP.3.$.+.F H e.f.H.f.y.h.Q.4XmXmXmXmXX.X.r.y.a.d.e.a.h.(.[.].R.R.Q.qXmXmXmXmXmXmXmXmXmXmXmXmXmX",
"mXmXmXmXmXmXmXmXmXmXmXmXmXmXmXmXmXk.e.e.y.r L y.y.Y.u.r.f.y.Q.mXmXmXH.w.e.q.r.j.h.j.j.h.E.~ Y C.=.A =.mXmXmXmXmXmXmXmXmXmXmXmXmX",
"mXmXmXmXmXmXmXmXmXmXmXmXmXmXmXmXk.p.t j Y L t % l Y f.i g k S ,XmXmXf.e.w.t X.j.d.y.r.h.U * R ` j R / mXmXmXmXmXmXmXmXmXmXmXmXmX",
"mXmXmXmXmXmXmXmXmXmXmXmXmXmXmXmXmXa.$ z R X.6 @ R S n.6 # W ! Q.mXmXmXmXmX7 C M.i.I P h.x.g R z.S l mXmXmXmXmXmXmXmXmXmXmXmXmXmX",
"mXmXmXmXmXmXmXmXmXmXmXmXmXmXmXmXmXmX1 l k u.S + g ~ m.S O l S mXmXmXmXmXmXmXmXmXmXmXmXmXmXmXmXmXmXmXmXmXmXmXmXmXmXmXmXmXmXmXmXmX",
"mXmXmXmXmXmXmXmXmXmXmXmXmXmXmXmXmXmXmXmXmXmXmXmXmXmXmXmXmXmXmXmXmXmXmXmXmXmXmXmXmXmXmXmXmXmXmXmXmXmXmXmXmXmXmXmXmXmXmXmXmXmXmXmX",
"mXmXmXmXmXmXmXmXmXmXmXmXmXmXmXmXmXmXmXmXmXmXmXmXmXmXmXmXmXmXmXmXmXmXmXmXmXmXmXmXmXmXmXmXmXmXmXmXmXmXmXmXmXmXmXmXmXmXmXmXmXmXmXmX"
};
