/* XPM */
static char *_7157_95513178f5e52ea4848bd29c92cae762f2fd87f318efd80366358a49a6b7e3b9[] = {
/* columns rows colors chars-per-pixel */
"64 64 100 2 ",
"   c #050500",
".  c #0B0B00",
"X  c #121205",
"o  c #16160A",
"O  c #17180A",
"+  c #1A1B0E",
"@  c #1D1E11",
"#  c #1F2012",
"$  c #222215",
"%  c #252619",
"&  c #272818",
"*  c #2A2A1D",
"=  c #2D2E21",
"-  c #2F2E29",
";  c #2F3023",
":  c #323225",
">  c #35362A",
",  c #37392B",
"<  c #3A3A2E",
"1  c #3D3D31",
"2  c #3F3E39",
"3  c #3F4033",
"4  c #424236",
"5  c #45463A",
"6  c #47483A",
"7  c #4A4A3D",
"8  c #474641",
"9  c #484742",
"0  c #4D4D42",
"q  c #4F4E49",
"w  c #4F5042",
"e  c #525245",
"r  c #555549",
"t  c #57584A",
"y  c #5A5A4D",
"u  c #575651",
"i  c #585752",
"p  c #5D5D52",
"a  c #5E5D58",
"s  c #5F6052",
"d  c #626255",
"f  c #656659",
"g  c #67685B",
"h  c #6A6A5D",
"j  c #6D6E61",
"k  c #6E6D68",
"l  c #6F7062",
"z  c #727265",
"x  c #757669",
"c  c #77786A",
"v  c #7A7A6D",
"b  c #7D7E71",
"n  c #7F8072",
"m  c #828275",
"M  c #858679",
"N  c #87887B",
"B  c #8A8A7D",
"V  c #8D8E81",
"C  c #8F9082",
"Z  c #929286",
"A  c #96968A",
"S  c #97988A",
"D  c #9A9A8D",
"F  c #9D9E91",
"G  c #9FA091",
"H  c #A2A295",
"J  c #A5A699",
"K  c #A7A89A",
"L  c #AAAB9E",
"P  c #ADAEA1",
"I  c #AFB0A2",
"U  c #B2B2A5",
"Y  c #B5B6A9",
"T  c #B7B8AA",
"R  c #BABAAD",
"E  c #B8B7B2",
"W  c #BDBDB1",
"Q  c #BFC0B2",
"!  c #C2C2B5",
"~  c #C5C6B9",
"^  c #C7C8BA",
"/  c #CACABD",
"(  c #CDCEC1",
")  c #CFD0C1",
"_  c #D2D2C5",
"`  c #D6D6C9",
"'  c #D7D8C9",
"]  c #DADBCD",
"[  c #DDDED1",
"{  c #DFE0D2",
"}  c #E2E2D5",
"|  c #E6E7DA",
" . c #E7E8DA",
".. c #EBECDE",
"X. c #EEEEE1",
"o. c #EFF0E2",
"O. c #F2F2E6",
"+. c #F6F6EA",
"@. c #FAFBEE",
"#. c #FDFEF2",
/* pixels */
"g X f Z 6 X t < : 6 d Z  .C % f m y 5 p t 5 f f & p r j r r b ! U j f r : F D F B 5 7 F ! F P m @ = 5 Z f x 0 5 0 @ z m 0 ~ H % ",
"0 = v W x B +.K j s X s B & 1 b d * 1 4 0 7 j ) e 5 5 7 : 7 V 4 > . 1 x v h ( Z M 1 0 L v e r * 7 5 f 0 = 5 1 e y r e p U L u 1 ",
"y z W / o.I / G Y ' 1 < , y 7 w e m B < > 5 s B z z T A y z p P v m M 4 y > M A m z 5 v m 5 d 5 0 v v U r i 0 > z e 4 < J ) v 7 ",
", h 7 R Q c U 7 ! ' Z l @ d r = B { I t t 5 b W v x ! B h j 4 _ B H B - q 4 : V v 7 0 2 7 i p f < v F A J h p B B V 0 d A E B 0 ",
"$ 4 ; g v G } l N B R D ; D N y v B B B ) g B o.d ' ) o 0 < b d h > 1 e * f 7 V f d 7 > h 0 p 4 2 4 p 1 F f : Z A A e 1 7 F A d ",
"y z j c x t m I D t c T b z y / c , , 4 d ; t , e | 1 m ) L p 4 5 0 d z V < F Z e 5 f b r 1 = y 2 7 m 4 z M V r L A r 1 7 7 0 V ",
"6 e 7 h x 3 & s N d 7 t 7 ; * 6 v : : # w m h w d J ~ } [ B @ & > : i M ( z G 0 > 0 y v = > 7 5 v M J p * x _ W / A u < e 2 & m ",
"m J 4 c T M : l g 7 v H Y N y G G & z y 6 B 4 m z 0 e H h h H B M B f < d v j f 4 < 0 v < r > j M j m A 1 4 v j 5 j > r m J L L ",
"B { B s < 6 w m g 7 & y B B ^ B s & s t s B 7 d e 1 4 l x j ! T V U M a q 0 d B h < z m r i d W M j 5 p u h Z e B A < 5 & p A r ",
"m t } B + 3 t t 7 l y B B & z m c B e 6 B z : < 6 # !  .B B V y b 0 h b z 7 > 4 f p f r u m / _ H B = p p e v u ~ Z f y 0 b v 1 ",
"s 6 I t & N B s d d I { l X B ' K B g m Q m : c ~ w y ] = y 5 p L * : 4 = 5 5 1 p 5 1 1 b b Y L _ O.J U z $ k F _ L B h x z = 5 ",
"t s m l N L B g ! y B B : t m ^ B # g ^ Q G & m ' M < x h 0 7 A z 2 < 0 x j B B h 1 7 d z > p v k A Z B z z A D Y J + : 1 < f z ",
"l t I l ..m & & w B w m s ; t m R l e ^ B : w b w m , w j * p e < @ 2 m D B d M H > x Y 2 > Z h v x a b L / F m ( M $ < < e 7 j ",
"B T m X B L & w B m s w 6 6 l m h z h o.t H / v 6 / 7 s ) _ H : d b y 0 d 4 r > r 2 M E p 7 0 f B x x 0 > / P e x v : = 7 u y d ",
"N B g e B B 6 B B B B m l : 4 s e s B ' B B B y T B L m Z ' > > f P e > e = 0 v & r ' ] h d z V z + y 2 > V > > M y r 1 f W M @ ",
"6 t w l ) T , I g s , 3 s 3 7 m ) B e B B < w f ~ / y w _ G p f b F 7 + 5 = f Z x / X.A q v U b 7 = p e h h < m P 0 d p < M H d ",
"3 # 6 L / h t m m 6 , w s B & w B l , 3 & e w : B e X 5 h R L m K Y s % 3 u n N t y c f s d 7 4 2 p y 1 d 0 v D p 2 0 r 0 2 H b ",
"6 6 N B m 3 t t B Q I t l t 6 , 3 6 6 : 6 6 w w 0 o y j X f m p i t 6 3 6 n s 3 , ; , 3 6 6 7 M F M d e r * > p 4 > r d H W _ d ",
"Q T e 6 s # z Q s m m g B 3 h m & s 7 w I T B c 1 : j e 7 p 1 0 3 ; t g F Q s 3 j h 3 3 s x x 4 r h 7 4 e u y 5 x y f M A [ U M ",
"{ B 6 m I 6 l o.T Q ) B ' m B B T z t 3 l h m T 4 0 r A b j 4 < ; s i 6 C ^ l r 3 ; t m t s B s 0 x 5 < e d d u f e v J 2 & 5 U ",
"^ B h l d z m I ) B B m t N h L ! < p e b 5 B J 2 m h X j J j x , s 6 ; 3 r 3 g r 3 3 s l B J G [ ! _ ` 1 f x > $ 7 < 2 z e b H ",
"d , B ^ l L / T B B s 6 z w 6 l : > : f w v B v v x m 0 h ! / M 6 t % i g g 7 3 3 N I D m h G l Z z ! m m 0 h q r 0 h e 0 f B 1 ",
"B B g Q o.T Q I B { m d I , 3 B = 7 s < : h h B F r h A f k j Y n ; w n n t I n * n n C l , t l e Z B v V Z z m V v B M f 0 % y ",
"{ T 6 ^ / B g s ; g t g z t I Q d p J y e 7 < t 7 4 p j 2 r 1 v Q C 6 6 Q Q { G D s 0 # m 6 s B > F x 5 m 2 Z O.} P b h A A p 7 ",
"B w & 6 7 # 4 6 h m 7 t I / ../ b 1 h A v 7 2 < z h * b p & A Z n n s K Y T I _ ) b t s e > h c x @ ! b 2 0 v | J 5 x L P _ f f ",
"t 6 6 g I B 7 t e y 7 t s 4 s B h 1 : B j > 0 h 0 p 1 y r - h d w w % n n g @ C J = G x d 1 m m p 4 x A f q x X.A F W L j B E b ",
"; w 7 z & { / l s 7 s m s : 3 & e 7 7 b j < : e f p 7 d z z W 0 n N g t 6 s n n ~ B B e : y e f 7 < 5 r h 8 p A 1 H E P F m [ F ",
"3 6 ^ s # 6 N t s : m I m h 6 t e 0 : j f y * h P > 5 h e p ( r ; w t S , s S I s & y 4 ; d y h 0 f f 4 5 0 b b p / L m v 0 5 < ",
"B l ) h < 6 & t 6 ; '  .N ^ y 7 7 4 0 h h z : v / 4 B J e 0 z j n 3 t _ s H K n x y e 7 4 < B y j Z z e j p 4 7 f ( P x M 4 i & ",
"Q B B m ; 6 t 4 : & B m m s s 3 y v < p 5 v m P ! z b E p < = j n w n T n K S s 7 < = h 7 m D e y p e h f * p 4 > F E m Z _ J < ",
"g m m s ; 3 & 4 l y l 4 l 7 6 7 j 0 1 5 < < 5 d i h p V r f d x C Y s C % g I n x = < j r h j d 4 8 1 > = < r h : h m $ p ( F < ",
"B m m m B m g t ^ ^ c l & c m B h & p p p < 0 B 5 * p z 4 y 4 L S n K ] | S C K ' v < z h v Z A 2 m M 0 V F r m v h L m E L r 1 ",
"B y Q J l l L : J B T ) z B / U 7 < z B 7 t s R m 7 _ B t l v B N I I a Q / ] i H Z - J j 0 a B J @.] z z g - r l l Q C H a 3 C ",
"l N B t c ) G w w h ~ B R L P h e 7 r 7 4 e & t h z +.B d B R G I ` w - 6 w $ 3 m p = A 0 o 7 m R V 5 V N 3 z z 3 n z 3 3 3 i C ",
", t T m t T } Q d Q d 6 7 G m * p p 4 = t z s 6 7 y R h e e z j I g O w H w 6 w b x U / B 4 b J _ V X r z 3 V z # 3 ; r 9 3 3 D ",
"y e B / J B  .) B t : 1 t t j d 4 7 r T B D m 4 e B B 0 < t y 4 S C t g n 3 w 8 4 7 J P r b R M J P d 1 s 3 = w q 3 3 3 s 3 3 t ",
"6 B B B g & m / ' Q v d b z @ t 7 7 r B H / T h 7 B G B ~ M ' ] Q n 3 9 a 3 3 3 y 5 0 b p e r 0 p 0 3 i f , q t - n E g w , w g ",
"B { t z d , B ) m w 6 7 e y j b v p : v B / ! d 4 < S @.v J o./ Q 7 % 3 3 6 3 l p a 0 4 p 1 : D h g K y t B g 3 g K I C H n S n ",
"c B w : s B B e 7 : 4 1 & 1 b m s 7 7 N g v B X h t /  .& 4 J h - 3 a C g % n K Y P p : 5 4 2 X.x M j > A G r s w N U n N n n n ",
"& + t & t ' y & 7 4 7 m h : 1 : 6 w e B B m h h t h h I : + 4 e 3 3 g n r u N Q @.J r p 5 7 v D K M 1 n ^ 3 > 3 3 F +.g w n n N ",
"w , 4 h h x 4 7 y p B / P m A d 7 6 h m 7 t m e = e : f ! G f : 9 s 3 6 z g m A P 0 4 z r 5 p 4 q q C n 6 s 3 3 S n K g - 6 w 8 ",
"w 1 7 I } v > B M y j J P v h h c y w : < g m 6 r M B & G B v G Q s K C > M g f 5 7 0 p y > 5 r w % q g 6 , q n ~ , * i , , 6 3 ",
": B Q B B G x : 4 0 4 1 d b j 7 : 6 d g d B Q B y y V y : z ! z s i U Q 0 1 4 q 5 a r r f 7 7 D s g c S E t 3 t Z a g N w w n H ",
": J @.n # v 7 e y e 4 > d Z j y 6 6 h w s m l ' P 7 0 0 p h B p u 3 = 3 f d r = l r 5 g h z p B N H Q | | C s 3 n N n n 3 , 9 N ",
"p 1 J h 7 z & j m 0 e G M v f > t ; y f t g B o.[ J U u B M b B G s i t 0 s p f L e - 5 f h $ A ` n Q K E E n T n n s g s 6 K n ",
"j 7 r 7 < z 7 & j h p h t s 1 < < w d w w c m B M v [ v 0 e > & 3 n V s V x < 0 x H e 1 d 7 5 A K 6 3 N ^ K n g u g t n w t N n ",
"5 % H r 0 f * 4 e y > 5 h m x s f G / ) e & 6 z d H U r 4 : q y 3 0 c l J Z i 3 d n r : 1 q 7 1 C n q l C ^ ( | I g a E F N n n ",
"H v z U V P f 4 4 7 d x h e y B e B N s < < t c J J A i 4 z h 7 9 = s j 3 r p > M R ] V e z > 5 a ^ n w S K E Y K n I ^ g g n n ",
"M P U ] A B 4 0 7 1 2 7 7 2 M B 4 y x 5 0 5 7 j d 5 1 0 2 e % 7 f y B Z q d j 0 0 B H p < 7 5 1 l n i 9 C Z g n 3 = Q Q i s K s ",
"< j L h i 4 > > e 7 < 8 5 j M J j 0 x x y > r 1 2 x H D 7 * d p = r M B e 2 j h - 1 z 5 > j h 0 n n 6 g ~ w a Q n k / V q 3 j j ",
"k v 8 a u 2 0 9 r 7 r - a v q a 7 0 i 2 y x % 0 y q [ X.m 7 4 : @ p Z H = * D 0 5 v / b 0 d h b ^ g w N H w 3 * g ] [ 3 > n S k ",
"8 h a 8 < 0 a 5 9 9 b > a F 0 7 q 5 < < = e y 5 d z z a > * j 9 f > y J 0 r R _ y H B r 0 : B r N t , 6 s s w n 9 Q Q 3 q n G 3 ",
"q a % 2 2 2 i q 9 < u a i i u 8 f r h i > 5 m F 0 e & 7 b F ..J b m v h $ p v A B F p 4 0 M a 0 N n 3 n n w i n > x k u h 3 n C ",
"- 2 k p 8 8 8 E u 8 q 8 9 9 u r p B O.A 7 0 p A F z r U b f L U e : r m k J r d Y Z h B F Z h 7 H % a I u 3 9 s s v C n w i s h ",
"a p u - > 8 - q u < q 9 > q * 2 B ! E p F r 4 > M L A A 0 9 e H A Z Z x U Y 1 U L 9 e j ( } 7 a n 3 C s O g N _ s r Q n P s s s ",
"q 5 v i i h k k u q 8 q > - A h 0 4 = p [ A a z 1 M B 0 z Z f b e F b 4 7 e x J j > f 0 ! +.7 f K q n a N S n g s s b   3 s = s ",
"6 6 c t m B w l V 0 y v y Z ! 7 b = 5 W U m x f e j H 5 < z / E 5 F B d 0 4 0 a a d 0 d x J F A ~ b B 0 f M * j n y , 1 d 5 p 5 ",
"t w < , h s 7 w y k r h R ! Z y x Z Z B d f q h Z 7 R B f Z L e 0 ] / r d ! v z m j d R m x F W L X._ < p v 7 A G k e , b , m Y ",
"7 w 6 N l 3 B G P v x z B G m d > B v x v 5 p h M 2 e f y F b V f b V d h F v M f v D [ J Z u 4 v ( 7 p [ 0 : f P P < 1 < V 9 0 ",
"B B 6 d s < c B X.X.Q R m t y 7 i B x r m h h h M x 0 7 2 m Z a x i = 2 v : > 0 p r f A y V e * 0 M 7 < f < 5 > b V s k $ : q r ",
"m 7 B L < w m g B B } ' z v d I V 2 p r x x p f b d f 5 e y < < p e M x h x p f j 0 > 0 p d z = m Y x 5 7 5 f L R h p F g e p f ",
"4 ; N B w m B B T ) Q B m B s { F p m Z x 5 = : B j 4 < 0 b v J J r 0 r e z d b r r r 7 5 x 7 r k z r d - - p r f 9 : x J j e 7 ",
"4 t s l s N l 6 m ' B m m , X f J B j A A F V _ Z b j p M L V L J A b y 4 7 e v 0 e a z p b b v r z F 7 > x r 7 1 < p f F j p b ",
"w l t g 6 g 6 m m B x s 7 : 7 : : 0 m U A M H / m B H z b j 0 b A R F Y B y i f f b J B j p 7 0 r r f 4 f D A B p 7 z r > r z d "
};
