/* XPM */
static char *result[] = {
/* columns rows colors chars-per-pixel */
"64 64 238 2 ",
"   c #010101",
".  c #080B09",
"X  c #14180D",
"o  c #302F12",
"O  c #133326",
"+  c #2E2F1B",
"@  c #453D02",
"#  c #3A5D17",
"$  c #305114",
"%  c #39641C",
"&  c #28621F",
"*  c #194937",
"=  c #0B523A",
"-  c #3B4D26",
";  c #3B6B22",
":  c #3C762B",
">  c #195214",
",  c #47590B",
"<  c #445819",
"1  c #554B07",
"2  c #4F620E",
"3  c #52620E",
"4  c #5F6C0F",
"5  c #4D6412",
"6  c #436519",
"7  c #4D6D1B",
"8  c #476619",
"9  c #526611",
"0  c #536A15",
"q  c #5B6D14",
"w  c #536E19",
"e  c #4E711E",
"r  c #5B7117",
"t  c #55741D",
"y  c #5A751B",
"u  c #5B7B1E",
"i  c #55791F",
"p  c #626D0E",
"a  c #637C1C",
"s  c #6B7D1B",
"d  c #657515",
"f  c #767C13",
"g  c #535838",
"h  c #4F4F2B",
"j  c #476B20",
"k  c #4B7925",
"l  c #487627",
"z  c #537621",
"x  c #547B23",
"c  c #5B7C23",
"v  c #577B25",
"b  c #516D34",
"n  c #627D23",
"m  c #677B28",
"M  c #646439",
"N  c #707036",
"B  c #625D24",
"V  c #0A5A43",
"C  c #2A5A46",
"Z  c #106951",
"A  c #2F6E56",
"S  c #675C46",
"D  c #596F43",
"F  c #6D7053",
"G  c #547762",
"H  c #697770",
"J  c #524F41",
"K  c #817652",
"L  c #6C841E",
"P  c #65811E",
"I  c #77851B",
"U  c #48832C",
"Y  c #5C8226",
"T  c #54832A",
"R  c #5B852A",
"E  c #5D892C",
"W  c #54862A",
"Q  c #4A8A33",
"!  c #538C31",
"~  c #589736",
"^  c #539536",
"/  c #648423",
"(  c #6A8423",
")  c #658926",
"_  c #6C8C25",
"`  c #63852A",
"'  c #638C2B",
"]  c #6B8C2A",
"[  c #6A862A",
"{  c #738C23",
"}  c #768B29",
"|  c #6D942C",
" . c #6A942B",
".. c #739225",
"X. c #7A9426",
"o. c #72932B",
"O. c #749A2D",
"+. c #7B9C2B",
"@. c #7A9728",
"#. c #678935",
"$. c #758C36",
"%. c #659A34",
"&. c #6C9C33",
"*. c #659533",
"=. c #739C32",
"-. c #7A9937",
";. c #5FA53E",
":. c #7EA22C",
">. c #6AA83C",
",. c #7AA432",
"<. c #77A937",
"1. c #7CB33B",
"2. c #1B8768",
"3. c #2E8D73",
"4. c #539E41",
"5. c #6E8E4B",
"6. c #5CA542",
"7. c #5AA643",
"8. c #65AD43",
"9. c #75A648",
"0. c #7CB843",
"q. c #67B145",
"w. c #52816B",
"e. c #74876A",
"r. c #768A76",
"t. c #718770",
"y. c #839A27",
"u. c #849637",
"i. c #888727",
"p. c #83A42C",
"a. c #8AA42B",
"s. c #8DAB2C",
"d. c #87A429",
"f. c #94AD2D",
"g. c #94B22D",
"h. c #9BB62D",
"j. c #83A532",
"k. c #85AB33",
"l. c #8BAB32",
"z. c #89A93A",
"x. c #92AA38",
"c. c #88B539",
"v. c #93B332",
"b. c #94BE3D",
"n. c #9AB839",
"m. c #A8BB2C",
"M. c #A7BC37",
"N. c #9EC43A",
"B. c #A9C22E",
"V. c #B4C82F",
"C. c #AAC534",
"Z. c #ABCC3C",
"A. c #A6C539",
"S. c #B3C43C",
"D. c #B3CD3C",
"F. c #B8C836",
"G. c #BDD339",
"H. c #CCD935",
"J. c #C6D637",
"K. c #D2DE36",
"L. c #C1D034",
"P. c #DAE23B",
"I. c #E2E53C",
"U. c #848849",
"Y. c #879748",
"T. c #869757",
"R. c #969859",
"E. c #8F8D55",
"W. c #8DAB42",
"Q. c #84BD43",
"!. c #83BC4A",
"~. c #97BA42",
"^. c #99A358",
"/. c #A8BC48",
"(. c #A6B857",
"). c #B2BE53",
"_. c #85886B",
"`. c #869467",
"'. c #87947B",
"]. c #939B79",
"[. c #8C8C6D",
"{. c #A49774",
"}. c #93A568",
"|. c #93A676",
" X c #A1A87B",
".X c #AFB96E",
"XX c #8BC346",
"oX c #97C847",
"OX c #98C554",
"+X c #A9C648",
"@X c #B4C746",
"#X c #B7D245",
"$X c #ABC955",
"%X c #B5CB56",
"&X c #B7D253",
"*X c #B4C463",
"=X c #C8DA48",
"-X c #D4DD48",
";X c #CDDE52",
":X c #DDE448",
">X c #E9E954",
",X c #E5E64B",
"<X c #53B397",
"1X c #509780",
"2X c #8A9984",
"3X c #939D84",
"4X c #879990",
"5X c #94A489",
"6X c #99A88D",
"7X c #A7AB88",
"8X c #B4BB89",
"9X c #A5AF95",
"0X c #A6B398",
"qX c #B9BE97",
"wX c #AEB088",
"eX c #AFBDA2",
"rX c #C3B794",
"tX c #C6BFA5",
"yX c #BEC59D",
"uX c #B8C688",
"iX c #BBC3AA",
"pX c #C4CCB4",
"aX c #D0D3AF",
"sX c #E2DEB9",
"dX c #DCE1BB",
"fX c #C5CB95",
"gX c #DCE4CB",
"hX c #E5E7C9",
"jX c #F9F7DC",
"kX c #F5F0CD",
"lX c #FEFCE5",
"zX c #FDFCEB",
"xX c #FEFEF4",
"cX c #FDFDFB",
"vX c #F5F5F0",
"bX c #EDEEE8",
"nX c #D0D8C5",
"mX c None",
/* pixels */
"mXmXmXmXmXmXmXmXmXmXmXmXmXmXmXmXmXmXmXmXmXmXmXmXmXmXmXmXmXmXmXmXmXmXmXmXS mXmXmXmXmXmXmXmXmXmXmXmXmXmXmXmXmXmXmXmXmXmXmXmXmXmXmX",
"mXmXmXmXmXmXmXmXmXmXmXmXmXmXmXmXmXmXmXmXmXmXmXmXmXmXmXmXmXmXmXmXmXmXmXmXS S mXmXmXmXmXmXmXmXmXmXmXmXmXmXmXmXmXmXmXmXmXmXmXmXmXmX",
"mXmXmXmXmXmXmXmXmXmXmXmXmXmXmXmXmXmXmXmXmXmXmXmXmXmXmXmXmXmXmXmXmXmXmX XK F mXmXmXmXmXmXmXmXmXmXmXmXmXmXmXmXmXmXmXmXmXmXmXmXmXmX",
"mXmXmXmXmXmXmXmXmXmXmXmXmXmXmXmXmXmXmXmXmXmXmXmXm.m.m.m.d.L y t e 7 E.rX7X[.mXmXmXmXmXmXmXmXmXmXmXmXmXmXmXmXmXmXmXmXmXmXmXmXmXmX",
"mXmXmXmXmXmXmXmXmXmXmXmXmXmXmXmXmXmXmXmXmXmXH.P.I.:X:XP.P.G.d.P u i Y U.[.[.mXmXmXmXmXmXmXmXmXmXmXmXmXmXmXmXmXmXmXmXmXmXmXmXmXmX",
"mXmXmXmXmXmXmXmXmXmXmXmXmXmXmXS S mXmXmXF.P.-X@Xx.l.k.v.B.H.H.d.( P x e m m mXmXmXmXmXmXmXmXmXmXmXmXmXmXmXmXmXmXmXmXmXmXmXmXmXmX",
"mXmXmXmXmXmXmXmXmXmXmXmXmXmXmXK {.{.Y.F.P.A.O.' O.,.,.<.<.c.V.G...P / u x x R mXmXmXmXmXmXmXmXmXmXmXmXmXmXmXmXmXmXmXmXmXmXmXmXmX",
"mXmXmXmXmXmXmXmXmXmXmXmXmXmXmX[.rX.XM.J.,.R O.,.,.,.|  . .,.c.D.M.) _ Y x v v R R mXmXmXmXmXmXmXmXmXmXmXmXmXmXmXmXmXmXmXmXmXmXmX",
"mXmXmXmXmXmXmXmXmXmXmXmXmXmXmXmX^.n.J.+.R k.C.S.S.+XM.v.@.Y | v.D.@./ ) Y x k c T T mXmXmXmXmXmXmXmXmXmXmXmXmXmXmXmXmXmXmXmXmXmX",
"mXmXmXmXmXmXmXmXmXmXmXmXmXmXmXmXa.F.x.Y v.S..X.X8XwX X}.W.-.) _ n.h.L ..) ) x x v T E mXmXmXmXmXmXmXmXmXmXmXmXmXmXmXmXmXmXmXmXmX",
"mXmXmXmXmXmXmXmXmXmXmXmXmXmXmXmXh.Z.) g.@XfXhXjXjXjXgXpXeX].5.n ..M..._ o.) T x T v T E mXmXmXmXmXmXmXmXmXmXmXmXmXmXmXmXmXmXmXmX",
"mXmXmXmXmXmXmXmXmXmXmXmXmXmXmXs.C.l.:.*XdXzXzXxXxXxXzXgXpXiX5X5.v s.p._ _ ) ` x x Y v T ' mXmXmXmXmXmXmXmXmXmXmXmXmXmXmXmXmXmXmX",
"mXmXmXmXmXmXmXmXmXmXmXmXmXmXmXg.C.j.(.dXlXzXcXcXcXcXxXjXgXiXeX4X#.o.s..._ _ / x x v x x R ' mXmXmXmXmXmXmXmXmXmXmXmXmXmXmXmXmXmX",
"mXmXmXmXmXmXmXmXmXmXmXmXmXmXp.g.h.v.aXkXlXcXcXcXcXcXbXnXpXiXeX0X'.c s.@..._ ) x T x x x x T ' mXmXmXmXmXmXmXmXmXmXmXmXmXmXmXmXmX",
"mXmXmXmXmXmXmXmXmXmXmXmXmXmXp.h.A..XhXlXzXcXcXcXbX4XC * C G 9X0X5X5.@.:.........) / c x x x c  .mXmXmXmXmXmXmXmXmXmXmXmXmXmXmXmX",
"mXmXmXmXmXmXmXmXmXmXmXmXmX+.p.h.C.uXhXjXzXxXcXvXt.* C = V = A 5X5Xe._ :.X.@.d.d.O...) Y T x x Y ' mXmXmXmXmXmXmXmXmXmXmXmXmXmXmX",
"mXmXmXmXmXmXmXmXmXmXmXmXmX+.s.h.@XyXhXjXjXzXxXiXO w.H . X V V G 5Xr.#.:.p.a.g.f.d.O.) ` Y k i Y Y Y mXmXmXmXmXmXmXmXmXmXmXmXmXmX",
"mXmXmXmXmXmXmXmXmXmXmXmXmX+.s.h.+XyXaXkXjXlXzX2X= * .     O 2.A 2Xr.$.p.p.p.p.p.:.o.) / c e e i Y ) ) mXmXmXmXmXmXmXmXmXmXmXmXmX",
"mXmXmXmXmXmXmXmXmXmXmXmX| +.f.m.+XyXpXsXkXjXlXr.V *   .   * 3.A r.t.-.p.y.+.y.@.{ ( u i e e 8 7 e i / ` Y mXmXmXmXmXmXmXmXmXmXmX",
"mXmXmXmXmXmXmXmXmXmXmXmX=.a.h.V.n.wXuXaXsXhXhX0XV Z O X O w.3.3.r.e.j.p.@.@.{ / a u i e 7 6 6 5 6 6 7 Y ) ) Y mXmXmXmXmXmXmXmXmX",
"mXmXmXmXmXmXmXmXmXmXmXo.:.h.V.L.C.|.7XyXaXaXdXpXG Z A 3.<X<XA t.t.W.,.+.@.L t 0 5 0 t 7 8 < 6 % # # 6 z / |  .' R mXmXmXmXmXmXmX",
"mXmXmXmXmXmXmXmXmXmXmXo.p.h.V.H.H.(.].7XqXrXpXeXqXw.Z 3.3.w.t.e.T.j.l.p.{ u t 0 8 w a y 7 8 # , % 6 R i u ) O.O.| ) T mXmXmXmXmX",
"mXmXmXmXmXmXmXmXmXmX+.o.p.g.m.L.K.=X].].7X7XwX9X9X6X|.r.r.r.e.R.l.g.n.:.I P u y 7 u @.P t 8 8 6 7 T %.mXmXmXY _ O.|  .R E mXmXmX",
"mXmXmXmXmXmXmXmXmX+.o.=.+.d.s.B.J.K.@X}._.].3X3X5X2X'.r.e.e.(.x.g.Z.g.+...L L u e o...c y z j v T ' >.mXmXmXmXmXY Y Y R  .' mXmX",
"mXmXmXmXmXmXmXmX+..._ $._ P s @.m.H.K.S.).R._.[._._.`.}.(./.l.M.J.C.v.p.:...P # c / n a c i v v #.*.<.mXmXmXmXmXmXmX@.k. .E mXmX",
"mXmXmXmXmXmXmXmX+._ / ] y q 9 s d.V.K.H.L.m.M.).)././.M.n.M.L.=XG.C.m.g.:.i $ $ ] i c a u c c R #.| <.mXmXmXmXmXmXmXZ.&.T mXmXmX",
"mXmXmXmXmXmXmXmX+._ n m r d 0 q X.h.V.L.K.L.m.m.M.M.S.G.;X>X:X-X=XD.h._ # - + | [ c c c c c Y ` ' &.z.mXmXmXmXmXmXZ.,.T mXmXmXmX",
"mXmXmXmXmXmXmX:.+._ c n r L @.t L f.B.F.H.K.I.I.,X,X>X>X>X>X>X,XS...j - - S -.z.z z c c c c ` ] *.,.c.mXmXmXmXmXD.k.T mXmXmXmXmX",
"mXmXmXmXmXmXmXp.:.c w n w L d.l._ X.B.L.K.P.I.I.>X>X>X>X>X-X/.i.j - g g g Y./.` z z c c c Y [ *.| j.x.mXmXmXmXZ.c.E mXmXmXmXmXmX",
"mXmXmXmXmXmXp.k. .7 mXc q s { +.p.$ 8 L y.f.m.L.L.M.M.x.N N g h - h S + h +X-.t z z z c v R #.| O.z.mXmXmXmXZ.c.R mXmXmXmXmXmXmX",
"mXmXmXmXmXmXl.p.i mXmX8 w d ( ( l.$.M E.U.E.N K N g B M h o h - X X o < /.W.x z z z z c c #. .o.O.j.c.A.A.#Xb.~ mXmXmXmXmXmXmXmX",
"mXmXmXmXmX,.k. .mXmXmXmX5 r d a ( n.v.R.K R.M h S + X o o @ @ @ 1 B N $XW.x t j y c c m ` '  .=.,.<.N.Z.#XoX*.T mXmXmXmXmXmXmXmX",
"mXmXmXmX,.:.O.) mXmXmXmX# 9 r u y [ +Xn.B + X   .   o @ 1 1 1 3 i.*X$X-.z 7 7 z c n n m ]  .O.,.~.Z.oXN.XX*.k mXmXmXmXmXmXmXmXmX",
"mXmXmXmX:._ ) mXmXmXmXmXmX, 9 0 0 w m ~.#XW.Y.g {.h B ^.i.i.M.+X)./.[ 7 8 w w z m m c / ] -.&.&.oX+XXX1.%.k mXmXmXmXmXmXmXmXmXmX",
"mXmXmXmXk.h.C.mXmXmXmXmXmX, , 3 9 5 5 w -.~.+X%X&X%X%X%X%X@X+XW.} t 8 8 7 w z c m ( / ] O.,.' ' c.>.1.*.l mXmXmXmXmXmXmXmXmXmXmX",
"mXmXmXmXu p.Z.G.D.mXmXmXmXmX, , 9 5 5 3 9 0 / o.u.z.z.z.-.} n w 5 9 9 5 w t c m / / ] O.p.v.o.T E <.^ l D mXmXmXmXmXmXmXmXmXmXmX",
"mXmXmXmXmXmX..A.G.Z.mXmXmXmXmX, , 2 3 3 3 9 9 2 9 w w w 9 5 5 5 9 0 0 w t n ( } ) ] +.d.a.( ) mXW ~ U l l mXmXmXmXmXmXmXmXmXmXmX",
"mXmXmXmXmXmXmXu k.D.Z.mXmXmXmXY 5 , 2 3 , 3 5 2 5 5 5 5 5 9 9 9 9 q d u n { X.] o.y.k.y.I t Y mXmXmX^ mXmXmXmXmXmXmXmXmXmXmXmXmX",
"mXmXmXmXmXmXmXmXmXO.N.Z.~.<.' W 8 5 3 2 3 3 9 3 9 9 3 9 0 q p p s f L _ { y.@.+.l.f.mXa d y Y mXmXmXmXmXmXmXmXmXmXmXmXmXmXmXmXmX",
"mXmXmXmXmXmXmXmXmXmX .N.N.' k k k b % 3 4 9 p p q p p p q d f I I } I y.y.a.j.x.mXmXmXY d y c mXmXmXmXmXmXmXmXmXmXmXmXmXmXmXmXmX",
"mXmXmXmXmXmXmXmXmXmXmXx x % ; : k W k y L d d r d d d d d f f I I { i.X.y.a.mXmXmXmXmXmXu y v  .mXmXmXmXmXmXmXmXmXmXmXmXmXmXmXmX",
"mXmXmXmXmXmXmXmXmXmXmXmX% % # % ; % l +.g.@.o._ s s L I I I I I I f mXmXmXmXmXmXmXmXmXmXi i k E mXmXmXmXmXmXmXmXmXmXmXmXmXmXmXmX",
"mXmXmXmXmXmXmXmXmXmXmXmXmX# # % # $ Y #XA.+.| mXmXmXmXmXmXmXmXmXmXmXmXmXmXmXmXmXmXmXmXmXi e i R mXmXmXmXmXmXmXmXmXmXmXmXmXmXmXmX",
"mXmXmXmXmXmXmXmXmXmXmXmXmXmXmX% % mXD.;Xn.<.&.mXmXmXmXmXmXmXmXmXmXmXmXmXmXmXmXmXmXmXmXmXmXi Y E mXmXmXmXmXmXmXmXmXmXmXmXmXmXmXmX",
"mXmXmXmXmXmXmXmXmXmXmXmXmXmXmXmXmXmX=X#Xc.<.mXmXmXmXmXmXmXmXmXmXmXmXmXmXmXmXmXmXmXmXmXmXmX` &.&.mXmXmXmXmXmXmXmXmXmXmXmXmXmXmXmX",
"mXmXmXmXmXmXmXmXmXmXmXmXmXmXmXmXmXmX;X+X<.mXmXmXmXmXmXmXmXmXmXmXmXmXmXmXmXmXmXmXmXmXmXmXmX=.&.*.mXmXmXmXmXmXmXmXmXmXmXmXmXmXmXmX",
"mXmXmXmXmXmXmXmXmXmXmXmXmXmXmXmXmX#X=XQ.&.mXmXmXmXmXmXmXmXmXmXmXmXmXmXmXmXmXmXmXmXmXmXmXmX,.E k mXmXmXmXmXmXmXmXmXmXmXmXmXmXmXmX",
"mXmXmXmXmXmXmXmXmXmXmXmXmXmXmXmXmXb.~.1.mXmXmXmXmXmXmXmXmXmXmXmXmXmXmXmXmXmXmXmXmXmXmXmXmX<.x 6 mXmXmXmXmXmXmXmXmXmXmXmXmXmXmXmX",
"mXmXmXmXmXmXmXmXmXmXmXmXmXmXmXmXmX' E %.mXmXmXmXmXmXmXmXmXmXmXmXmXmXmXmXmXmXmXmXmXmXmXmXc.<.T mXmXmXmXmXmXmXmXmXmXmXmXmXmXmXmXmX",
"mXmXmXmXmXmXmXmXmXmXmXmXmXmXmXmXmXmX6 k %.mXmXmXmXmXmXmXmXmXmXmXmXmXmXmXmXmXmXmXmXmXmXmXc.%.T mXmXmXmXmXmXmXmXmXmXmXmXmXmXmXmXmX",
"mXmXmXmXmXmXmXmXmXmXmXmXmXmXmXmXmXmXmX6 W %.mXmXmXmXmXmXmXmXmXmXmXmXmXmXmXmXmXmXmXmXmXmX1.~ U mXmXmXmXmXmXmXmXmXmXmXmXmXmXmXmXmX",
"mXmXmXmXmXmXmXmXmXmXmXmXmXmXmXmXmXmXmX6 l ! ~ mXmXmXmXmXmXmXmXmXmXmXmXmXmXmXmXmXmXmXmXmX1.%.k mXmXmXmXmXmXmXmXmXmXmXmXmXmXmXmXmX",
"mXmXmXmXmXmXmXmXmXmXmXmXmXmXmXmXmXmXmXmX7 U ~ mXmXmXmXmXmXmXmXmXmXmXmXmXmXmXmXmXmXmXmXmX>.~ k mXmXmXmXmXmXmXmXmXmXmXmXmXmXmXmXmX",
"mXmXmXmXmXmXmXmXmXmXmXmXmXmXmXmXmXmXmXmX# k ! >.mXmXmXmXmXmXmXmXmXmXmXmXmXmXmXmXmXmXmXmX1.! : mXmXmXmXmXmXmXmXmXmXmXmXmXmXmXmXmX",
"mXmXmXmXmXmXmXmXmXmXmXmXmXmXmXmXmXmXmXmXmX6 U ~ 8.mXmXmXmXmXmXmXmXmXmXmXmXmXmXmXmXmXmXQ.>.! mXmXmXmXmXmXmXmXmXmXmXmXmXmXmXmXmXmX",
"mXmXmXmXmXmXmXmXmXmXmXmXmXmXmXmXmXmXmXmXmXmX% Q >.mXmXmXmXmXmXmXmXmXmXmXmXmXmXmXmXmXmXXX>.Q mXmXmXmXmXmXmXmXmXmXmXmXmXmXmXmXmXmX",
"mXmXmXmXmXmXmXmXmXmXmXmXmXmXmXmXmXmXmXmXmXmX; Q %.6.mXmXmXmXmXmXmXmXmXmXmXmXmXmXmXmXmXXXXX8.Q mXmXmXmXmXmXmXmXmXmXmXmXmXmXmXmXmX",
"mXmXmXmXmXmXmXmXmXmXmXmXmXmXmXmX~ mXmXmX;.~ ;.8.8.6.6.mXmXmXmXmXmXmXmXmXmXmXmXmXmXmXOXXXoXOX1.~ Q mXmXmXmXmXmXmXmXmXmXmXmXmXmXmX",
"mXmXmXmXmXmXmXmXmXmXmXmXmX XT.6.^ : 5.9.q.q.q.8.7.7.7.7.mXmXmXmXmXmXmXmXmXmXmXmXmX$XoXXXXXoXoXXXXXc.XXoX!.9.Q.XX}.fXmXmXmXmXmXmX",
"mXmXmXmXmXmXmXmXmXmXmXmX_.tXF ~ l |.9X9.8.7.7.7.7.7.4.4.mXmXmXmXmXmXmXmXmXmXmXmXmX!.XXXXXX1.0.Q.XXXXoXoX(.7XwX8.5.tXaXmXmXmXmXmX",
"mXmXmXmXmXmXmXmXmXmXmXmXD 5.b Q : 5X5.4.4.4.4.4.Q Q mXmXmXmXmXmXmXmXmXmXmXmXmXmXmX^ ! ! ^ ! ! ^ ~ ;.>.0.!.5.wX5.: D mXmXmXmXmXmX",
"mXmXmXmXmXmXmXmXmXmXmXmXmXmXmXmXmXD ; ; Q mXmXmXmXmXmXmXmXmXmXmXmXmXmXmXmXmXmXmXmXmXmXmXmXmXmXmXmXmXU Q U & D b > mXmXmXmXmXmXmX",
"mXmXmXmXmXmXmXmXmXmXmXmXmXmXmXmXmXmXmXmXmXmXmXmXmXmXmXmXmXmXmXmXmXmXmXmXmXmXmXmXmXmXmXmXmXmXmXmXmXmXmXmXmXmXmXmXmXmXmXmXmXmXmXmX",
"mXmXmXmXmXmXmXmXmXmXmXmXmXmXmXmXmXmXmXmXmXmXmXmXmXmXmXmXmXmXmXmXmXmXmXmXmXmXmXmXmXmXmXmXmXmXmXmXmXmXmXmXmXmXmXmXmXmXmXmXmXmXmXmX"
};
