/* XPM */
static char *result[] = {
/* columns rows colors chars-per-pixel */
"64 64 181 2 ",
"   c #0D1F21",
".  c #20163C",
"X  c #0F2123",
"o  c #102224",
"O  c #152729",
"+  c #17282A",
"@  c #1A2B2D",
"#  c #1F2F32",
"$  c #1E3136",
"%  c #2A3A2B",
"&  c #223234",
"*  c #273739",
"=  c #2C3A3D",
"-  c #491E1D",
";  c #652826",
":  c #682A27",
">  c #6D2C2A",
",  c #722E2B",
"<  c #79312E",
"1  c #7D3330",
"2  c #344933",
"3  c #3A503C",
"4  c #301F56",
"5  c #303F41",
"6  c #3C2669",
"7  c #5C3B5A",
"8  c #432A76",
"9  c #452B7A",
"0  c #482D7E",
"q  c #653D60",
"w  c #354346",
"e  c #374649",
"r  c #394649",
"t  c #3B494C",
"y  c #29485A",
"u  c #2D4A62",
"i  c #2E5266",
"p  c #2F546A",
"a  c #30556A",
"s  c #365B77",
"d  c #375C78",
"f  c #414E4F",
"g  c #425C44",
"h  c #424E51",
"j  c #495356",
"k  c #4E595C",
"l  c #515C5E",
"z  c #59585A",
"x  c #655D5E",
"c  c #476345",
"v  c #466249",
"b  c #49664D",
"n  c #4B694E",
"m  c #54764B",
"M  c #4F6E52",
"N  c #527356",
"B  c #55775A",
"V  c #57795B",
"C  c #597D5E",
"Z  c #515D60",
"A  c #596366",
"S  c #5A6467",
"D  c #5B7F60",
"F  c #6A6769",
"G  c #786A6C",
"H  c #697174",
"J  c #6C7478",
"K  c #737A7E",
"L  c #833633",
"P  c #8A3936",
"I  c #8C3B38",
"U  c #923E3B",
"Y  c #95403D",
"T  c #98403D",
"R  c #9D4441",
"E  c #915E5C",
"W  c #A24643",
"Q  c #A64A46",
"!  c #A34C49",
"~  c #B25E59",
"^  c #9F7777",
"/  c #9D7778",
"(  c #9E7878",
")  c #A16E6E",
"_  c #BD6E6A",
"`  c #A07071",
"'  c #A07879",
"]  c #CA5F58",
"[  c #CA6159",
"{  c #5D8053",
"}  c #628657",
"|  c #638758",
" . c #648859",
".. c #6A925F",
"X. c #5D8062",
"o. c #6B9360",
"O. c #719E66",
"+. c #718776",
"@. c #758D7A",
"#. c #73A067",
"$. c #76A56A",
"%. c #7BAC6E",
"&. c #83BA76",
"*. c #85BD78",
"=. c #89B87F",
"-. c #4A2F82",
";. c #4D3185",
":. c #4F3388",
">. c #52358D",
",. c #55388F",
"<. c #553790",
"1. c #563892",
"2. c #593B95",
"3. c #5C3D9A",
"4. c #603FA2",
"5. c #3C6284",
"6. c #3E6488",
"7. c #5F409C",
"8. c #7E5380",
"9. c #40678D",
"0. c #436993",
"q. c #466C99",
"w. c #777E82",
"e. c #6242A4",
"r. c #6746AA",
"t. c #6B4AAC",
"y. c #6E52A8",
"u. c #7250B6",
"i. c #4C73A6",
"p. c #4E75AA",
"a. c #5176A9",
"s. c #5278AA",
"d. c #7A65A7",
"f. c #7E6CA7",
"g. c #7A65A8",
"h. c #915889",
"j. c #A05F95",
"k. c #9A6396",
"l. c #9E6895",
"z. c #9F779A",
"x. c #9D7999",
"c. c #A16096",
"v. c #A3649B",
"b. c #8276A3",
"n. c #887EA5",
"m. c #A567A1",
"M. c #A76AA5",
"N. c #A86CA7",
"B. c #A96EAA",
"V. c #AB71AE",
"C. c #AD75B4",
"Z. c #AE77B8",
"A. c #AF79BA",
"S. c #B07ABB",
"D. c #7A8084",
"F. c #7F8F86",
"G. c #7F9185",
"H. c #7489A6",
"J. c #798CA7",
"K. c #848C8C",
"L. c #9C898B",
"P. c #898D92",
"I. c #898D94",
"U. c #998E94",
"Y. c #988298",
"T. c #8B9592",
"R. c #8D959E",
"E. c #989399",
"W. c #9A969D",
"Q. c #959B9C",
"!. c #A58B8C",
"~. c #A29293",
"^. c #8FAA8E",
"/. c #90AC8D",
"(. c #8FB389",
"). c #96A598",
"_. c #8C85A3",
"`. c #8792A2",
"'. c #8994A3",
"]. c #9494A1",
"[. c #9B97A0",
/* pixels */
"X X X X X X X X     @ * +     X X X X X X X X X X X X X     o * @ X     X X X X X o X X X X X X       + * @   X X X X X X X X X ",
"X X X X     o * w e G ~ F w w & o X X X X X X X X X X # w w F ~ G e w * +     X X X X X       O * e e G ~ F w w & o     X X X X ",
"X X X # e A w.P.Q.Q.U._ E.Q.Q.P.J Z w # X X X + w k J P.Q.Q.Q._ ~.Q.W.T.w.A e & o X X X $ e Z w.P.Q.].E._ ~.Q.Q.P.K l w @ X X X ",
"X X X k U.L.L.L.L.L.L.L.L.L.L.L.L.L.U.h X X   w T.T.T.T.T.T.T.T.T.T.T.T.T.T.T.A   X X   j '.'.'.'.`.`.`.`.`.`.`.'.'.`.R.t X X X ",
"X X   Z ^ W Q ! ! ! ! ! ! ! ! ! ! ! ( t   X   e F.X.X.X.X.X.X.X.X.X.X.D X.X.@.S   o X   Z H.p.p.a.a.a.a.a.a.a.a.s.s.a.J.h X X X ",
"X X   Z ) W I P I I U Q U I P P I W ( h   o   t F.X.n v b v v v v v v v b C @.S   o X   k H.p.6.d d d 5.a.0.d d d d i.H.h o X o ",
"X o   Z ) W L < < < U Q U < < < L W ^ h   X   e F.X.v b N N N N B B B M g V @.S   o     k H.p.5.a a a d i.6.i a a d i.J.f   X X ",
"X X   Z ) W L ; : , U Q U , ; : L W ^ h   X X e F.X.v M X.N N N N N C B v C @.S   X     k H.p.5.a a a d a.6.a a a d i.J.f   X X ",
"X X   Z ) W L ; ; , U Q U , ; : L W ( h X X   e G.X.v M { c 3 g g g N B v V @.S o X X   k H.p.5.p p p d p.6.p p a d i.H.f     X ",
"X X   l ) W L ; ; , U Q U , ; : L W ^ t X X X e G.X.v M X.g g g g g B B g V @.S X o X   k H.p.5.p p p d p.6.p p a s i.J.f   X X ",
"X X   l ) R L ; ; , U Q U > ; ; L Q ` f X X   e G.X.v n X.g g g g g B B v V @.S X X X   k H.p.5.p p p d p.6.p p a s i.H.f   X X ",
"X X   l ) W L : ; , U Q U > ; : L W ^ f   X   e G.X.v n X.g g g g g B B g V @.S X X X   k H.p.5.p a p d p.6.p p a s i.J.f   X X ",
"X X   Z ) W L ; ; , T Q U , ; ; L W ` f   X X w G.X.g n X.g g g g g B V g C @.S X X X   k H.p.5.p a a 5.p.6.p p i s i.H.f   X X ",
"X X   Z ) W L ; ; < U Q U > ; : L W l.f   X   w G.X.v n X.g t g g g B B g C @.S   X X   k H.p.5.p a p s p.A p p i s i.J.j   X X ",
"X X   Z ) W L , , < U Q U < , , P W =.t   X   w G.X.v n { g g g g 3 B B g V @.S X X X   k H.i.5.p p p d a.9.a a a s i.J.f   X X ",
"X X   Z ) W P L P L U Q U L L L I W ) t   X   y G.X.v N X.g g g g g B B c C @.S   X X   k H.p.5.p p p d i.9.a a a s a.J.f X X X ",
"X X   Z ) W W W W W Q Q W W W U > I ^ f   o   r G.D t M X.c g 3 g g B B 2 g @.S   X X   k H.p.5.p a a d p.6.p p i y 6.H.h   X X ",
"X X   Z ) Q U U U U R Q T U Y < - > x.t       r G.D b M X.g g g g g B N % = +.S   o X   k H.p.5.p p a d p.6.p a u $ u H.h   X X ",
"X X   Z ) W L L L < U Q U 1 1 < > U / h X o   r G.D v M { g t g g g B B 3 n @.S X o X   k H.p.5.p a a d p.6.p a i u 6.J.h   X o ",
"X X   Z ) W L : , < U Q U , : > L ! / t X   X r G.X.v M C g c g 3 g B B c C @.S   X X   a H.p.5.p a p d p.6.p a a d p.J.h   X X ",
"X X   Z ) R L ; ; > U Q U , ; ; L Q ( h X X   w G.C v M { g g g g g N B g D @.S   X X   k H.p.5.p a a d p.6.p a i s i.H.h   o X ",
"X X   Z ) W L : ; , U Q U > ; ; L Q ( t   X X r G.X.v M X.g g g g g B B g B @.S X o X   k H.p.5.p a a d p.6.p a a s i.J.h o X X ",
"X X   Z ) R L ; ; > U Q U > ; ; L Q ^ f X X X w G.X.c M C c t g g g B B g D @.S X X X   k H.p.5.p a a d p.6.p p a s i.J.f   o   ",
"X X   Z ) R L ; : < U W U > ; : L Q ^ t   X X r G.X.v M } t g g g g B V g D @.S   X X   k H.p.5.p a a d p.6.p p a s i.J.h     o ",
"X X   Z ) W L ; ; > U Q U > ; ; L Q / t   X   r K.C c M C g g g g g B B g C @.S X X X   k H.p.5.a a a s p.6.a a a s i.H.f     X ",
"X X   Z ) R L ; ; > T Q U > ; ; L Q ( h   X   r F.C v M C n b b b v C V g C @.S X X X   k H.p.5.a a a s p.6.a a a s i.H.f   X X ",
"X X   Z ` W L > > < U Q U , > > L Q ( t   o   t F.D v n V V V C B C C N g V @.S   X X   k H.i.5.a a a s p.6.a a a s i.J.f   X X ",
"X X   Z ` W L L L L T Q U 1 L L L ! ( h   o   e F.D b c v v c c c g g v c C @.S X X X   k H.p.5.a a a s i.6.a a a s i.J.f   X X ",
"X X   Z ) W T T U U R Q R U U T R Q ( h   X   e F.D C C B C C B V C V V C C @.A X X X   k H.a.q.0.0.0.q.a.q.0.0.0.0.i.J.j   X X ",
"X X   Z !.` ( ( ' ' ^ ' ' ' ' ' ^ ^ U.t   X   e T.G.G.K.G.G.G.G.G.G.K.F.K.G.T.A X X X   k '.J.J.J.J.J.J.J.J.J.J.J.J.J.'.f   X X ",
"X X X 5 k k k Z Z k Z k Z k Z k k k k * X X X & k k k k k k k k k k k k Z k l 2 X X X   = k k k k k k k k k k l z l k k % X X X ",
"X X X X                         X   X X X X X                     X             X X X X X X   X X     X             X X o X X X ",
"X X X X X X o o     X + X X X X X o X X   o o   X X o o     o O X X   o   o o   X X X o X X o   o     o o X X X X X X X X X X X ",
"X X X X X   X O & * z E k # & O       X o   o         O & # j E x & & @       X o   o   o     X O & & z E z & & o X     X X X X ",
"X X X O & r S D.P.P.!.] ~.K.P.K l r & O o     O # w l K P.P.U.[ !.P.P.w.S t * + o o X X O & r A D.P.P.!.] ~.P.P.K Z r & + X X X ",
"X X   j P.R.].].].].].E.R.].].].].E.K.r X o   w K.E.W.W.W.Q.Q.W.W.W.Q.[.[.E.I.k     o   j P.E.).).Q.).Q.Q.Q.Q.).).).Q.P.t   X X ",
"X X   z b.y.y.t.y.y.y.y.y.y.y.y.t.y.n.t   o   r Y.v.l.l.l.l.l.l.l.l.l.v.v.l.x.S   o X   l /.=.=.(.=.=.=.=.=.=.=.=.=.=.).h   X X ",
"X o   Z g.r.<.>.>.>.3.r.3.>.:.>.,.e.b.h       r x.k.M.B.B.B.B.B.B.B.B.B.B.c.z.S   o X   k (.*.%.O.#.#.$.*.%.#.O.O.$.*.^.h   X X ",
"X X   Z f.4.0 9 -.9 <.r.>.9 0 9 0 e.b.h       r Y.c.C.C.B.N.B.B.B.B.B.V.S.v.z.S   o     k /.*.O.}  .} ..*.#.} | | ..&.^.h   X X ",
"X X X l f.4.:.r.t.<.<.r.>.7.t.e.;.e.b.f X     r Y.k.C.M.j.v.v.v.v.v.c.v.Z.v.z.S   X X   k /.*.O.}  . ...*.#.}  .| ..&.^.h   X X ",
"X X   l f.e.;.t.u.,.,.r.,.7.u.t.;.e.b.f   o   r Y.c.V.N.v.C.Z.A.A.Z.v.v.Z.j.z.S X X X X k /.*.O.|  .| o.*.#.|  .| ..&.^.h   X X ",
"X X X Z f.e.>.t.u.2.,.r.>.7.u.r.;.e.b.f   o   r Y.c.C.N.v.C.S.S.S.A.v.v.Z.v.z.S X X X   k /.*.O.|  .| o.*.#.|  .| ..&.^.h X X X ",
"X X X l f.4.:.t.u.2.<.r.,.7.u.r.;.e.f.f   X   r Y.c.C.N.c.C.S.S.S.S.v.v.Z.j.z.S X X X   k /.*.O.|  .| ..*.O.|  .| ..&.^.h   X X ",
"X X   l f.e.>.t.u.2.<.r.>.7.u.r.;.e.b.f   X   r Y.v.V.N.v.C.S.S.S.[.v.M.Z.m.z.S X X X   l /.*.O.|  .| ..*.O.|  .| o.&.^.h X X X ",
"X o   Z f.4.:.t.u.2.,.r.,.7.u.r.;.e.n.h   X   r Y.j.V.N.v.C.S.S.S.S.v.v.Z.j.z.S X X X   k /.*.O.|  .| ..*.O.|  .| ..&.^.h   X X ",
"X o   l f.e.>.t.u.2.<.r.>.7.u.y.;.e.f.h   X   r Y.c.V.B.v.C.S.S.S.S.m.v.Z.v.z.S   X X   k /.*.O.|  . .o.*.#.|  .| ..&.^.h   X X ",
"X X   Z f.4.;.7.e.:.1.r.,.,.e.7.;.e.f.t X X   r Y.c.C.N.c.C.S.S.S.S.m.v.Z.m.v.Z X X X   k /.*.O.|  .| o.*.#.| | | ..&.^.h   X X ",
"X X   l f.e.0 9 9 9 1.r.1.6 8 8 -.e.I.t   X   r Y.l.C.N.v.C.S.S.S.S.m.m.Z.j.z.F X X X   k /.*.O.|  .| o.=.O.| | | o.=.^.h X X X ",
"o X   l f.e.3.3.3.3.e.r.4.3.3.<.8 2.b.f       r L.c.C.M.v.C.S.S.Z.Z.m.j.h.h.z.S X X X   z /.*.O.|  .| o.*.O.| | | m #./.f   o X ",
"X X   l f.e.3.3.3.3.4.r.4.3.3.9 . 6 b.f   X   r Y.k.C.N.v.C.S.S.S.Z.m.h.7 q x.S X X X   k (.*.O.|  .| o.*.O.| | m 2 m /.h   X X ",
"X X   l f.e.0 8 9 8 1.r.>.9 9 6 4 ;.b.f   X   r Y.c.C.M.c.C.S.S.S.S.m.j.8.G z.S   X X   k /.*.O.|  .| o.*.O.|  .} c ../.h   o X ",
"X o X Z f.4.-.7.e.>.1.r.>.<.e.3.;.e.b.f   X   r Y.j.C.N.v.Z.S.S.S.Z.m.v.Z.v.z.S X X X   k /.*.O.|  .| o.*.$.|  .| ..*./.h   X X ",
"X X   l f.e.;.t.u.2.<.r.>.7.u.t.>.e.b.f   X X r Y.j.C.M.c.Z.S.S.S.S.m.v.C.v.z.S   X X   k /.*.O.|  . .o.*.O.|  .| o.&.^.h   X X ",
"X X X l f.4.;.t.u.3.<.r.>.3.u.r.:.e.b.f   X   r Y.c.C.N.c.Z.S.S.S.S.v.m.C.v.z.S X X X   k /.*.O.|  .| o.*.$.|  .| o.&.^.h   X X ",
"o X   l f.4.;.t.u.3.1.t.:.7.u.t.:.e.b.f   X   r Y.c.C.M.v.C.S.S.S.Z.v.m.Z.v.z.S     X   k /.*.O.|  .| o.*.O.|  .| o.&.^.h   X X ",
"X X   l f.4.;.t.u.2.,.r.:.7.u.r.;.e.b.f   X   r Y.j.C.M.c.Z.S.S.S.S.v.v.Z.c.z.S o o     k (.*.O.|  . ...&.O.| | | o.&./.h   X X ",
"X X   Z b.4.;.t.u.2.<.r.>.3.u.t.:.4.b.h   o   r Y.c.C.N.c.Z.S.A.S.S.v.m.C.v.M.S X X X   k /.*.O.|  .| ..*.#.|  .| o.&.^.h   X X ",
"X X   Z g.4.;.r.u.2.<.r.>.3.u.t.:.e.b.h   X X e Y.j.C.M.c.V.Z.Z.C.C.v.v.C.j.z.S   X X   k /.*.O.|  .| ..*.#.|  .| o.&.^.h   X X ",
"X X   Z b.4.-.r.y.2.2.r.,.2.t.r.:.e.b.f   X   e Y.j.C.M.c.v.v.v.v.j.j.m.Z.v.z.S X X X   k /.*.O.|  .| ..*.O.| | | ..&.^.h   X X ",
"X X   Z g.4.-.9 0 9 <.r.>.9 9 9 -.e.b.h   X   e Y.c.C.Z.V.C.B.C.C.C.C.C.Z.v.z.S X X X   k /.*.O.| | | ..*.O.| | | ..&.^.h   X X ",
"X X X Z g.4.1.<.>.>.3.r.2.>.>.:.<.e.b.h   X   e Y.j.v.m.m.m.m.m.m.m.m.m.v.j.z.S X X X   l /.*.%.O.O.#.$.*.%.O.O.O.$.*./.h   X X ",
"X X X Z n.g.g.g.d.d.d.d.g.g.g.g.d.d._.h   o   e U.z.z.z.z.z.z.z.z.z.z.z.z.z.Y.S X X X   l /.(.(.(.(.(.(.(.(.(.(.(.(.(.Q.h   X X ",
"X X X t H H H H H H H H H H H H H H H 5   X   = H H H H H H H H H H H H H H J h X X X X w H H H H H H H H H H H H H H H 5 X o X ",
"X X X X o o o o     o o o   o o o o o X X X o   X o o o o o o o X X o o o o o o X X X X o o o o o o o o o o o X o o o o X X X X "
};
